<svg xmlns="http://www.w3.org/2000/svg" xmlns:xlink="http://www.w3.org/1999/xlink" version="1.1" x="0px" y="0px" viewBox="0 0 100 125" enable-background="new 0 0 100 100" xml:space="preserve"><path d="M93.626,9.495c-0.012-0.071-0.021-0.141-0.037-0.21c-0.05-0.221-0.113-0.439-0.202-0.653c-0.013-0.031-0.03-0.06-0.044-0.09  c-0.086-0.195-0.188-0.379-0.3-0.553c-0.033-0.051-0.07-0.099-0.106-0.149c-0.108-0.152-0.227-0.295-0.354-0.43  c-0.036-0.038-0.071-0.077-0.109-0.114c-0.161-0.156-0.332-0.3-0.518-0.426c-0.011-0.008-0.021-0.017-0.031-0.025  c-0.186-0.124-0.384-0.229-0.59-0.32c-0.089-0.041-0.183-0.071-0.275-0.105c-0.12-0.043-0.242-0.082-0.368-0.114  c-0.107-0.028-0.215-0.054-0.327-0.073c-0.183-0.031-0.371-0.049-0.562-0.057c-0.037-0.001-0.071-0.011-0.108-0.011  c-0.005,0-0.01,0.001-0.015,0.001c-0.006,0-0.012-0.001-0.019-0.001L69.783,6.329c-2.209,0.019-3.985,1.824-3.967,4.033  c0.019,2.198,1.806,3.967,3.999,3.967c0.012,0,0.022,0,0.034,0l10.113-0.084l-51.87,51.919H9.771c-2.209,0-4,1.791-4,4v20  c0,2.209,1.791,4,4,4h19.98c2.209,0,4-1.791,4-4V71.821l51.942-51.992v10.301c0,2.209,1.791,4,4,4s4-1.791,4-4V10.165  c0-0.043-0.011-0.083-0.013-0.125C93.675,9.857,93.657,9.676,93.626,9.495z M25.751,86.165h-11.98v-12h11.98V86.165z"/><path d="M27.457,32.862c0.781,0.782,1.806,1.173,2.83,1.173c1.023,0,2.046-0.39,2.827-1.17c1.562-1.561,1.564-4.094,0.003-5.657  l-7.163-7.17l7.164-7.177c1.561-1.563,1.559-4.096-0.005-5.657c-1.563-1.56-4.096-1.559-5.657,0.005L20.3,14.378l-7.163-7.17  c-1.562-1.563-4.094-1.563-5.657-0.002c-1.562,1.561-1.564,4.094-0.003,5.657l7.172,7.179l-7.121,7.133  c-1.561,1.563-1.559,4.096,0.005,5.657C8.313,33.61,9.336,34,10.358,34c1.024,0,2.05-0.392,2.831-1.174l7.112-7.125L27.457,32.862z"/><path d="M85.896,79.968l7.164-7.177c1.561-1.563,1.559-4.096-0.005-5.657c-1.564-1.56-4.097-1.559-5.657,0.005l-7.156,7.169  l-7.163-7.17c-1.562-1.562-4.094-1.564-5.657-0.002c-1.562,1.561-1.564,4.094-0.003,5.657l7.172,7.179l-7.121,7.133  c-1.561,1.563-1.559,4.096,0.005,5.657c0.781,0.779,1.804,1.169,2.826,1.169c1.024,0,2.05-0.392,2.831-1.174l7.112-7.125  l7.155,7.162c0.781,0.782,1.806,1.173,2.83,1.173c1.023,0,2.046-0.39,2.827-1.17c1.562-1.561,1.564-4.094,0.003-5.657L85.896,79.968  z"/><text x="0" y="115" fill="#000000" font-size="5px" font-weight="bold" font-family="'Helvetica Neue', Helvetica, Arial-Unicode, Arial, Sans-serif">Created by Vicons Design</text><text x="0" y="120" fill="#000000" font-size="5px" font-weight="bold" font-family="'Helvetica Neue', Helvetica, Arial-Unicode, Arial, Sans-serif">from the Noun Project</text></svg>