<svg xmlns="http://www.w3.org/2000/svg" xmlns:xlink="http://www.w3.org/1999/xlink" version="1.1" x="0px" y="0px" viewBox="0 0 100 125" enable-background="new 0 0 100 100" xml:space="preserve"><g><path d="M92.476,31.507v-5.823c0-2.176-1.694-3.946-3.777-3.946h-3.646v-6.219c0-0.828-0.671-1.5-1.5-1.5h-5.312   c-0.829,0-1.5,0.672-1.5,1.5v6.219H31.938v-6.219c0-0.828-0.671-1.5-1.5-1.5h-5.312c-0.829,0-1.5,0.672-1.5,1.5v6.219h-3.214   c-2.083,0-3.776,1.771-3.776,3.946v27.283c-5.563,3.074-9.113,9.019-9.113,15.412c0,6.935,4.093,13.244,10.424,16.074   c1.095,0.492,2.245,0.87,3.414,1.123c1.225,0.269,2.492,0.405,3.766,0.405c1.201,0,2.395-0.131,3.554-0.37h60.019   c2.083,0,3.777-1.771,3.777-3.946V31.526c0-0.003,0.001-0.007,0.001-0.01S92.476,31.51,92.476,31.507z M79.742,17.019h2.312v6.219   V25.4h-2.312v-2.163V17.019z M26.626,17.019h2.312v6.219V25.4h-2.312v-2.163V17.019z M20.413,24.737h3.214V26.9v0.435   c0,0.828,0.671,1.5,1.5,1.5h5.312c0.829,0,1.5-0.672,1.5-1.5V26.9v-2.163h44.803V26.9v0.435c0,0.828,0.671,1.5,1.5,1.5h5.312   c0.829,0,1.5-0.672,1.5-1.5V26.9v-2.163h3.646c0.428,0,0.777,0.425,0.777,0.946v4.333h-69.84v-4.333   C19.636,25.171,19.992,24.737,20.413,24.737z M22,82.646c-0.969-0.21-1.919-0.522-2.826-0.93c-5.255-2.35-8.651-7.584-8.651-13.337   c0-5.57,3.244-10.736,8.267-13.159c1.982-0.959,4.114-1.445,6.368-1.445c0.559,0.002,1.111,0.04,1.658,0.104   c1.467,0.169,2.888,0.551,4.24,1.153c5.269,2.342,8.674,7.581,8.674,13.348c0,1.278-0.17,2.528-0.489,3.725   c-1.065,3.987-3.796,7.382-7.461,9.272c-1.099,0.566-2.281,0.998-3.528,1.27c-0.001,0-0.001,0.001-0.002,0.001   C26.219,83.09,24.036,83.091,22,82.646z M26.626,50.838v-0.36c0-0.132,0.106-0.239,0.236-0.239h7.91   c0.131,0,0.238,0.107,0.238,0.239v1.447c0,0.13-0.106,0.235-0.238,0.235h-2.795c-0.448-0.189-0.903-0.357-1.363-0.509   c-0.08-0.026-0.162-0.045-0.242-0.07c-0.452-0.142-0.909-0.263-1.371-0.367c-0.15-0.034-0.301-0.063-0.453-0.093   c-0.432-0.086-0.867-0.154-1.307-0.207c-0.124-0.015-0.247-0.033-0.372-0.046C26.789,50.86,26.708,50.845,26.626,50.838z    M88.699,82.611H35.463c0.039-0.028,0.074-0.059,0.112-0.088c0.082-0.061,0.161-0.125,0.241-0.188   c0.278-0.214,0.548-0.436,0.812-0.666c0.087-0.075,0.175-0.15,0.261-0.228c0.32-0.29,0.631-0.589,0.929-0.9   c0.045-0.048,0.088-0.099,0.133-0.146c0.256-0.274,0.501-0.557,0.74-0.846c0.078-0.095,0.155-0.189,0.23-0.285   c0.25-0.317,0.493-0.642,0.721-0.976c0.019-0.027,0.039-0.053,0.058-0.08c0.243-0.358,0.468-0.729,0.684-1.105   c0.06-0.104,0.117-0.208,0.174-0.313c0.172-0.314,0.336-0.635,0.489-0.96c0.038-0.079,0.078-0.157,0.114-0.236   c0.179-0.395,0.343-0.797,0.493-1.205c0.037-0.1,0.069-0.201,0.104-0.302c0.116-0.334,0.222-0.672,0.317-1.014   c0.03-0.107,0.062-0.214,0.09-0.322c0.11-0.425,0.208-0.854,0.286-1.289c0.014-0.076,0.022-0.152,0.035-0.228   c0.062-0.373,0.111-0.748,0.149-1.127c0.012-0.122,0.024-0.243,0.034-0.366c0.036-0.45,0.06-0.904,0.06-1.362   c0-5.349-2.437-10.314-6.45-13.608c1.024-0.544,1.73-1.608,1.73-2.846v-1.447c0-1.786-1.453-3.239-3.238-3.239h-7.91   c-1.784,0-3.236,1.453-3.236,3.239v0.362c-0.092,0.008-0.182,0.023-0.273,0.032c-0.162,0.017-0.321,0.037-0.482,0.058   c-0.478,0.061-0.952,0.141-1.421,0.24c-0.114,0.024-0.229,0.042-0.342,0.068c-0.496,0.116-0.988,0.249-1.473,0.408v-18.63h69.84   v48.648C89.476,82.187,89.127,82.611,88.699,82.611z"/><path d="M34.773,35.96h-7.91c-1.785,0-3.237,1.452-3.237,3.236v1.447c0,1.785,1.452,3.237,3.237,3.237h7.91   c1.785,0,3.237-1.452,3.237-3.237v-1.447C38.01,37.412,36.558,35.96,34.773,35.96z M35.01,40.644c0,0.131-0.106,0.237-0.237,0.237   h-7.91c-0.13,0-0.237-0.106-0.237-0.237v-1.447c0-0.13,0.106-0.236,0.237-0.236h7.91c0.13,0,0.237,0.106,0.237,0.236V40.644z"/><path d="M58.295,35.96h-7.911c-1.785,0-3.236,1.452-3.236,3.236v1.447c0,1.785,1.452,3.237,3.236,3.237h7.911   c1.785,0,3.237-1.452,3.237-3.237v-1.447C61.532,37.412,60.08,35.96,58.295,35.96z M58.532,40.644c0,0.131-0.106,0.237-0.237,0.237   h-7.911c-0.13,0-0.236-0.106-0.236-0.237v-1.447c0-0.13,0.106-0.236,0.236-0.236h7.911c0.13,0,0.237,0.106,0.237,0.236V40.644z"/><path d="M81.816,35.96h-7.911c-1.785,0-3.236,1.452-3.236,3.236v1.447c0,1.785,1.452,3.237,3.236,3.237h7.911   c1.785,0,3.237-1.452,3.237-3.237v-1.447C85.053,37.412,83.601,35.96,81.816,35.96z M82.053,40.644   c0,0.131-0.106,0.237-0.237,0.237h-7.911c-0.13,0-0.236-0.106-0.236-0.237v-1.447c0-0.13,0.106-0.236,0.236-0.236h7.911   c0.13,0,0.237,0.106,0.237,0.236V40.644z"/><path d="M58.295,47.239h-7.911c-1.785,0-3.236,1.453-3.236,3.238v1.446c0,1.784,1.452,3.236,3.236,3.236h7.911   c1.785,0,3.237-1.452,3.237-3.236v-1.446C61.532,48.692,60.08,47.239,58.295,47.239z M58.532,51.924   c0,0.13-0.106,0.236-0.237,0.236h-7.911c-0.13,0-0.236-0.106-0.236-0.236v-1.446c0-0.132,0.106-0.238,0.236-0.238h7.911   c0.13,0,0.237,0.106,0.237,0.238V51.924z"/><path d="M81.816,47.239h-7.911c-1.785,0-3.236,1.453-3.236,3.238v1.446c0,1.784,1.452,3.236,3.236,3.236h7.911   c1.785,0,3.237-1.452,3.237-3.236v-1.446C85.053,48.692,83.601,47.239,81.816,47.239z M82.053,51.924   c0,0.13-0.106,0.236-0.237,0.236h-7.911c-0.13,0-0.236-0.106-0.236-0.236v-1.446c0-0.132,0.106-0.238,0.236-0.238h7.911   c0.13,0,0.237,0.106,0.237,0.238V51.924z"/><path d="M58.295,58.521h-7.911c-1.785,0-3.236,1.452-3.236,3.236v1.446c0,1.785,1.452,3.238,3.236,3.238h7.911   c1.785,0,3.237-1.453,3.237-3.238v-1.446C61.532,59.973,60.08,58.521,58.295,58.521z M58.532,63.203   c0,0.132-0.106,0.238-0.237,0.238h-7.911c-0.13,0-0.236-0.106-0.236-0.238v-1.446c0-0.13,0.106-0.236,0.236-0.236h7.911   c0.13,0,0.237,0.106,0.237,0.236V63.203z"/><path d="M81.816,58.521h-7.911c-1.785,0-3.236,1.452-3.236,3.236v1.446c0,1.785,1.452,3.238,3.236,3.238h7.911   c1.785,0,3.237-1.453,3.237-3.238v-1.446C85.053,59.973,83.601,58.521,81.816,58.521z M82.053,63.203   c0,0.132-0.106,0.238-0.237,0.238h-7.911c-0.13,0-0.236-0.106-0.236-0.238v-1.446c0-0.13,0.106-0.236,0.236-0.236h7.911   c0.13,0,0.237,0.106,0.237,0.236V63.203z"/><path d="M58.295,69.8h-7.911c-1.785,0-3.236,1.452-3.236,3.236v1.449c0,1.783,1.452,3.233,3.236,3.233h7.911   c1.785,0,3.237-1.45,3.237-3.233v-1.449C61.532,71.252,60.08,69.8,58.295,69.8z M58.532,74.485c0,0.129-0.106,0.233-0.237,0.233   h-7.911c-0.13,0-0.236-0.104-0.236-0.233v-1.449c0-0.13,0.106-0.236,0.236-0.236h7.911c0.13,0,0.237,0.106,0.237,0.236V74.485z"/><path d="M81.816,69.8h-7.911c-1.785,0-3.236,1.452-3.236,3.236v1.449c0,1.783,1.452,3.233,3.236,3.233h7.911   c1.785,0,3.237-1.45,3.237-3.233v-1.449C85.053,71.252,83.601,69.8,81.816,69.8z M82.053,74.485c0,0.129-0.106,0.233-0.237,0.233   h-7.911c-0.13,0-0.236-0.104-0.236-0.233v-1.449c0-0.13,0.106-0.236,0.236-0.236h7.911c0.13,0,0.237,0.106,0.237,0.236V74.485z"/><path d="M35.894,68.379c0-0.828-0.671-1.5-1.5-1.5h-8.069v-5.594c0-0.828-0.671-1.5-1.5-1.5s-1.5,0.672-1.5,1.5v7.094   c0,0.828,0.671,1.5,1.5,1.5h9.569C35.223,69.879,35.894,69.207,35.894,68.379z"/></g><text x="0" y="115" fill="#000000" font-size="5px" font-weight="bold" font-family="'Helvetica Neue', Helvetica, Arial-Unicode, Arial, Sans-serif">Created by Fatih Studio</text><text x="0" y="120" fill="#000000" font-size="5px" font-weight="bold" font-family="'Helvetica Neue', Helvetica, Arial-Unicode, Arial, Sans-serif">from the Noun Project</text></svg>