<svg xmlns="http://www.w3.org/2000/svg" xmlns:xlink="http://www.w3.org/1999/xlink" version="1.1" x="0px" y="0px" viewBox="0 0 100 125" enable-background="new 0 0 100 100" xml:space="preserve"><path d="M93.8,63.2c-1.8-0.1-5.6,1.9-6.6,2.4c-3.7,1.8-8.7,4.7-12.1,7c-0.2,0.2-0.5,0.4-0.8,0.5c-1.5,1-3.1,1.6-4.8,2  c-9.7,2.1-23.8,2.3-23.8,2.3l-0.8,0c-0.6,0-1.2-0.4-1.3-1c-0.1-0.7,0.4-1.3,1.1-1.3l21-2c2.3-0.3,4.2-2.4,3.9-4.8  c-0.2-2.4-2.5-4.2-4.8-4l-18.7-0.2c-1.3,0-3.3-0.3-4.5-0.7c-12-3.5-18.8-0.2-22.4,1.3c-0.8-1.3-2.3-2.2-4-2.1l-8.1,0.5  c-2.7,0.2-4.7,2.4-4.5,5L3.9,86c0.2,2.6,2.5,4.5,5.2,4.3l8.1-0.5c1.7-0.1,3.1-1.2,3.7-2.6l35.4,1.5c3.9,0.4,7.6-0.1,11.1-1.9l1-0.5  l26.7-15.6c1.3-0.8,2.2-2.1,2.3-3.6C97.4,65.4,96.4,63.4,93.8,63.2z M12.1,86.1c-1.5,0-2.7-1.2-2.7-2.6c0-1.5,1.2-2.6,2.7-2.6  c1.5,0,2.7,1.2,2.7,2.6C14.8,85,13.6,86.1,12.1,86.1z M74,69.3c0-0.5,0-1,0-1.5c-0.1-0.6-0.2-1.2-0.4-1.8c0,0,0-0.1,0-0.1  c2.8-1.5,8.3-4.2,11.4-5.4c1.5-0.6,3-0.6,4.4,0.4c-1.1,0.4-2.1,0.9-3,1.3c-3.2,1.6-8.7,4.6-11.5,6.5C74.5,69,74.2,69.2,74,69.3z   M82,58.7c-2.2,1-6.4,2.4-8.4,3.5L72.3,63c-0.1,0.1-0.2,0.2-0.4,0.2c-0.6-0.7-1.3-1.3-2.1-1.8c1.8-1,6-2.3,7.8-3.1  C79.2,57.8,80.7,57.8,82,58.7z M64,39.4c0.6,0.8,0.5,2-0.2,2.7c-0.8,0.8-2,0.8-2.8,0.1l0,0l-7-5.9c-0.1-0.1-0.3-0.2-0.4-0.3  c-0.6-0.6-0.9-1.3-0.8-2.1c0,0,0,0,0-0.1c0,0,0,0,0,0l0,0l0,0c0-0.1,0-0.2,0-0.2l0.8-12.5c0,0,0-0.1,0-0.1l0,0h0c0.1-1,1-1.8,2-1.8  c1.1,0,2,0.8,2,1.9h0l0.7,11.3c0,0.3,0.2,0.7,0.4,0.9l5.1,6C63.9,39.3,63.9,39.3,64,39.4L64,39.4L64,39.4z M55.9,9.6  C42.7,9.6,32,20.3,32,33.5s10.7,23.8,23.8,23.8s23.8-10.7,23.8-23.8S69,9.6,55.9,9.6z M55.9,51.8c-10.1,0-18.4-8.2-18.4-18.4  c0-10.1,8.2-18.4,18.4-18.4s18.4,8.2,18.4,18.4C74.2,43.6,66,51.8,55.9,51.8z"/><text x="0" y="115" fill="#000000" font-size="5px" font-weight="bold" font-family="'Helvetica Neue', Helvetica, Arial-Unicode, Arial, Sans-serif">Created by Gregor Cresnar</text><text x="0" y="120" fill="#000000" font-size="5px" font-weight="bold" font-family="'Helvetica Neue', Helvetica, Arial-Unicode, Arial, Sans-serif">from the Noun Project</text></svg>