<svg xmlns="http://www.w3.org/2000/svg" data-name="Layer 1" viewBox="0 0 512 640" x="0px" y="0px"><title>Save Time</title><g data-name="Group"><path data-name="Compound Path" d="M256,40.031a115.739,115.739,0,1,0,115.738,115.74A115.87,115.87,0,0,0,256,40.031Zm0,215.478a99.739,99.739,0,1,1,99.738-99.738A99.851,99.851,0,0,1,256,255.509Z"/><path data-name="Path" d="M297.93,157H258V101.863a8,8,0,0,0-16,0v62.894A8.221,8.221,0,0,0,250.011,173H297.93a8,8,0,0,0,0-16Z"/><path data-name="Compound Path" d="M406.771,155.771C406.771,72.636,339.135,5,256,5S105.229,72.636,105.229,155.771,172.865,306.54,256,306.54,406.771,238.905,406.771,155.771ZM256,290.54c-74.312,0-134.771-60.457-134.771-134.769S181.688,21,256,21,390.771,81.458,390.771,155.771,330.312,290.54,256,290.54Z"/><path data-name="Compound Path" d="M476.089,137.044a7.993,7.993,0,0,0-8.68-6.709,36.046,36.046,0,0,0-32.543,37.637l1.439,58.936a45.257,45.257,0,0,0-36.368,25.553L378.4,297.682a51.831,51.831,0,0,1-14.29,18.048l-4.477,3.59a90.922,90.922,0,0,0-34.118,75.234l-8.8-4.19a8,8,0,0,0-10.662,3.783l-23.616,49.588a8,8,0,0,0,3.783,10.662l108.816,51.826a7.994,7.994,0,0,0,10.662-3.784l23.617-49.587a8,8,0,0,0-3.783-10.663l-4.643-2.211-1.16-15.511a23.414,23.414,0,0,1,5.326-16.74l56.351-68.192q.171-.205.327-.424a93.5,93.5,0,0,0,17.479-55.673,7.93,7.93,0,0,0-.1-1.13Zm-81.4,351.294-94.371-44.946,16.738-35.143L411.431,453.2ZM468.9,329.555l-56.175,67.979a39.341,39.341,0,0,0-8.948,28.126l.478,6.395L342.4,402.6A75.018,75.018,0,0,1,369.641,331.8l4.477-3.59a67.941,67.941,0,0,0,18.727-23.653l21.537-45.22a29.288,29.288,0,0,1,31.271-16.262l-31.484,66.108a8,8,0,1,0,14.445,6.878l35.4-74.334a8,8,0,0,0-3.784-10.662,45.3,45.3,0,0,0-7.891-2.885l-1.483-60.7c0-.069,0-.139-.007-.209A20.07,20.07,0,0,1,461.688,148.4l21.534,135.839A77.435,77.435,0,0,1,468.9,329.555Z"/><path data-name="Compound Path" d="M205.946,394.147a8,8,0,0,0-10.662-3.783l-8.8,4.19a90.926,90.926,0,0,0-34.119-75.235l-4.475-3.588A51.835,51.835,0,0,1,133.6,297.682L112.063,252.46a45.256,45.256,0,0,0-36.368-25.553l1.439-58.935a36.046,36.046,0,0,0-32.543-37.637,8,8,0,0,0-8.68,6.709L12.885,282.308a7.93,7.93,0,0,0-.1,1.13,93.5,93.5,0,0,0,17.479,55.673q.156.219.327.424l56.351,68.193a23.41,23.41,0,0,1,5.326,16.739l-1.16,15.511-4.643,2.211a8,8,0,0,0-3.783,10.663L106.3,502.439a7.994,7.994,0,0,0,10.662,3.784L225.779,454.4a8,8,0,0,0,3.783-10.662ZM99.278,397.535,43.1,329.555a77.435,77.435,0,0,1-14.324-45.318L50.312,148.4a20.07,20.07,0,0,1,10.836,18.875c0,.07-.005.14-.007.209l-1.483,60.7a45.3,45.3,0,0,0-7.891,2.885,8,8,0,0,0-3.784,10.662l35.4,74.334a8,8,0,1,0,14.445-6.878L66.347,243.079A29.3,29.3,0,0,1,97.618,259.34l21.537,45.221a67.945,67.945,0,0,0,18.728,23.654l4.475,3.588A75.019,75.019,0,0,1,169.6,402.6l-61.853,29.459.478-6.395A39.341,39.341,0,0,0,99.278,397.535Zm18.029,90.8L100.569,453.2l94.371-44.946,16.738,35.143Z"/></g><text x="0" y="527" fill="#000000" font-size="5px" font-weight="bold" font-family="'Helvetica Neue', Helvetica, Arial-Unicode, Arial, Sans-serif">Created by Shastry</text><text x="0" y="532" fill="#000000" font-size="5px" font-weight="bold" font-family="'Helvetica Neue', Helvetica, Arial-Unicode, Arial, Sans-serif">from the Noun Project</text></svg>