<?xml version="1.0" encoding="UTF-8" standalone="no"?>
<svg
   xmlns:dc="http://purl.org/dc/elements/1.1/"
   xmlns:cc="http://creativecommons.org/ns#"
   xmlns:rdf="http://www.w3.org/1999/02/22-rdf-syntax-ns#"
   xmlns:svg="http://www.w3.org/2000/svg"
   xmlns="http://www.w3.org/2000/svg"
   xmlns:sodipodi="http://sodipodi.sourceforge.net/DTD/sodipodi-0.dtd"
   xmlns:inkscape="http://www.inkscape.org/namespaces/inkscape"
   version="1.1"
   x="0px"
   y="0px"
   viewBox="0 0 100 125"
   enable-background="new 0 0 100 100"
   xml:space="preserve"
   id="svg30"
   sodipodi:docname="12_SVGF.svg"
   inkscape:version="0.92.4 (5da689c313, 2019-01-14)"><metadata
     id="metadata36"><rdf:RDF><cc:Work
         rdf:about=""><dc:format>image/svg+xml</dc:format><dc:type
           rdf:resource="http://purl.org/dc/dcmitype/StillImage" /></cc:Work></rdf:RDF></metadata><defs
     id="defs34" /><sodipodi:namedview
     pagecolor="#ffffff"
     bordercolor="#666666"
     borderopacity="1"
     objecttolerance="10"
     gridtolerance="10"
     guidetolerance="10"
     inkscape:pageopacity="0"
     inkscape:pageshadow="2"
     inkscape:window-width="1366"
     inkscape:window-height="705"
     id="namedview32"
     showgrid="false"
     inkscape:zoom="4.288"
     inkscape:cx="50"
     inkscape:cy="62.5"
     inkscape:window-x="-8"
     inkscape:window-y="-8"
     inkscape:window-maximized="1"
     inkscape:current-layer="svg30" /><path
     d="M35.4,30.9c1.1,0,12.1-0.2,12.7,13c0,0,2.1,19.6-12.6,19.8v0c0,0-0.1,0-0.1,0c0,0-0.1,0-0.1,0v0  c-14.7-0.2-12.6-19.8-12.6-19.8C23.3,30.7,34.3,30.8,35.4,30.9z M69.8,70.3C69.8,70.3,69.8,70.3,69.8,70.3L69.8,70.3  C81.7,70.2,80,54.4,80,54.4C79.5,43.9,70.7,44,69.8,44c-0.9,0-9.7-0.1-10.2,10.4C59.6,54.4,57.9,70.2,69.8,70.3L69.8,70.3  C69.7,70.3,69.8,70.3,69.8,70.3z M91.5,88.4l0-2.1c-0.1-3.4-0.8-5.8-4.2-8c-4.6-2.9-9.8-5.4-9.8-5.4l-4.1,13l-2.4-6.8  c4.2-5.9-0.3-6.2-1.1-6.2v0c0,0,0,0,0,0c0,0,0,0,0,0v0c-0.8,0-5.3,0.3-1.1,6.2l-2.4,6.8l-4.1-13c0,0-1.5,0.7-3.6,1.9  c-0.4-0.4-0.9-0.7-1.5-1.1c-5.7-3.6-12.2-6.7-12.2-6.7l-5.1,16.1l-3-8.5c5.2-7.3-0.4-7.7-1.4-7.7v0c0,0,0,0,0,0c0,0,0,0,0,0v0  c-1,0-6.6,0.4-1.4,7.7l-3,8.5l-5.1-16.1c0,0-6.4,3.1-12.2,6.7c-4.3,2.7-5.1,5.6-5.3,9.9l0,2.6v11.7h26.9H48h14.2h7.5h21.7V88.4z   M65.5,15.8c-2.3,2.2-2.4,5.9-0.2,8.2c2.2,2.3,5.9,2.4,8.2,0.2c2.3-2.2,2.4-5.9,0.2-8.2C71.5,13.7,67.8,13.6,65.5,15.8z M82.2,32.7  c-5.9,5.9-14.8,6.8-21.7,2.8l0,0c-2.7,2-5.6,2.4-7.6,2.1c-0.7-0.1-0.8-1-0.2-1.3c1.8-0.9,3-2.7,3.7-4.2l-0.2-0.2  c-6.2-7-6-17.8,0.8-24.5c7-7,18.3-7,25.3,0C89.2,14.4,89.2,25.7,82.2,32.7z M81.7,22.3c0.6,0,1.1-0.5,1.1-1.1l0-1.7  c0-0.6-0.5-1.1-1.1-1.1l-1.7,0c-0.2-1.4-0.8-2.8-1.6-4l1.2-1.2c0.4-0.4,0.5-1.1,0-1.6l-1.2-1.3c-0.4-0.4-1.1-0.5-1.6,0l-1.2,1.2  c-1.2-0.9-2.6-1.4-4-1.7l0-1.7c0-0.6-0.5-1.1-1.1-1.1l-1.7,0c-0.6,0-1.1,0.5-1.1,1.1l0,1.7c-1.4,0.2-2.8,0.8-4.1,1.6l-1.2-1.2  c-0.4-0.4-1.1-0.5-1.6,0L59.7,11c-0.4,0.4-0.5,1.1,0,1.6l1.2,1.2c-0.9,1.2-1.5,2.6-1.8,4l-1.7,0c-0.6,0-1.1,0.5-1.1,1.1l0,1.7  c0,0.6,0.5,1.1,1.1,1.1l1.7,0c0.2,1.4,0.8,2.8,1.6,4.1L59.3,27c-0.4,0.4-0.5,1.1,0,1.6l1.2,1.3c0.4,0.4,1.1,0.5,1.6,0l1.2-1.1  c1.2,0.9,2.6,1.5,4,1.8l0,1.7c0,0.6,0.5,1.1,1.1,1.1l1.7,0c0.6,0,1.1-0.5,1.1-1.1l0-1.7c1.4-0.2,2.8-0.8,4.1-1.6l1.2,1.2  c0.4,0.4,1.1,0.5,1.6,0l1.3-1.2c0.4-0.4,0.5-1.1,0-1.6l-1.2-1.2c0.9-1.2,1.4-2.6,1.7-4L81.7,22.3z"
     id="path24" /></svg>