<?xml version="1.0" encoding="UTF-8" standalone="no"?>
<svg
   xmlns:dc="http://purl.org/dc/elements/1.1/"
   xmlns:cc="http://creativecommons.org/ns#"
   xmlns:rdf="http://www.w3.org/1999/02/22-rdf-syntax-ns#"
   xmlns:svg="http://www.w3.org/2000/svg"
   xmlns="http://www.w3.org/2000/svg"
   xmlns:sodipodi="http://sodipodi.sourceforge.net/DTD/sodipodi-0.dtd"
   xmlns:inkscape="http://www.inkscape.org/namespaces/inkscape"
   version="1.1"
   x="0px"
   y="0px"
   viewBox="0 0 64 80"
   style="enable-background:new 0 0 64 64;"
   xml:space="preserve"
   id="svg14"
   sodipodi:docname="14_SVGF.svg"
   inkscape:version="0.92.4 (5da689c313, 2019-01-14)"><metadata
     id="metadata20"><rdf:RDF><cc:Work
         rdf:about=""><dc:format>image/svg+xml</dc:format><dc:type
           rdf:resource="http://purl.org/dc/dcmitype/StillImage" /></cc:Work></rdf:RDF></metadata><defs
     id="defs18" /><sodipodi:namedview
     pagecolor="#ffffff"
     bordercolor="#666666"
     borderopacity="1"
     objecttolerance="10"
     gridtolerance="10"
     guidetolerance="10"
     inkscape:pageopacity="0"
     inkscape:pageshadow="2"
     inkscape:window-width="640"
     inkscape:window-height="480"
     id="namedview16"
     showgrid="false"
     inkscape:zoom="2.95"
     inkscape:cx="32"
     inkscape:cy="40"
     inkscape:window-x="0"
     inkscape:window-y="0"
     inkscape:window-maximized="0"
     inkscape:current-layer="svg14" /><path
     d="M6.26,39.35l-2.91,1.69l4,6.92l2.92-1.68c0.75,0.88,1.57,1.7,2.45,2.45l-1.68,2.92l6.92,4l1.69-2.91  c1.08,0.38,2.2,0.68,3.35,0.89V57h8v-3.37c1.15-0.21,2.27-0.51,3.35-0.89l1.69,2.91l6.92-4l-1.68-2.92c0.88-0.75,1.7-1.57,2.45-2.45  L38.17,42c-2.74,3.07-6.73,5-11.17,5c-8.28,0-15-6.72-15-15c0-8.28,6.72-15,15-15c4.44,0,8.43,1.93,11.17,5l5.56-4.28  c-0.75-0.88-1.57-1.7-2.45-2.45l1.68-2.92l-6.92-4l-1.69,2.91c-1.08-0.38-2.2-0.68-3.35-0.89V7h-8v3.37  c-1.15,0.21-2.27,0.51-3.35,0.89l-1.69-2.91l-6.92,4l1.68,2.92c-0.88,0.75-1.7,1.57-2.45,2.45l-2.92-1.68l-4,6.92l2.91,1.69  c-0.38,1.08-0.68,2.2-0.89,3.35H2v8h3.37C5.58,37.15,5.88,38.27,6.26,39.35z"
     id="path2" /><polygon
     points="49,36 43,36 29,26 19,26 19,30 27,30 41,40 49,40 49,43 56,38 49,33 "
     id="polygon4" /><polygon
     points="55,25 41,25 36.023,28.558 39.821,31.271 43,29 55,29 55,32 62,27 55,22 "
     id="polygon6" /><polygon
     points="19,35 19,39 29,39 32.577,36.442 28.779,33.729 27,35 "
     id="polygon8" /></svg>