<?xml version="1.0" encoding="UTF-8" standalone="no"?>
<svg
   xmlns:dc="http://purl.org/dc/elements/1.1/"
   xmlns:cc="http://creativecommons.org/ns#"
   xmlns:rdf="http://www.w3.org/1999/02/22-rdf-syntax-ns#"
   xmlns:svg="http://www.w3.org/2000/svg"
   xmlns="http://www.w3.org/2000/svg"
   xmlns:sodipodi="http://sodipodi.sourceforge.net/DTD/sodipodi-0.dtd"
   xmlns:inkscape="http://www.inkscape.org/namespaces/inkscape"
   version="1.1"
   x="0px"
   y="0px"
   viewBox="0 0 67 83.75"
   enable-background="new 0 0 67 67"
   xml:space="preserve"
   id="svg28"
   sodipodi:docname="18_SVGF.svg"
   inkscape:version="0.92.4 (5da689c313, 2019-01-14)"><metadata
     id="metadata34"><rdf:RDF><cc:Work
         rdf:about=""><dc:format>image/svg+xml</dc:format><dc:type
           rdf:resource="http://purl.org/dc/dcmitype/StillImage" /></cc:Work></rdf:RDF></metadata><defs
     id="defs32" /><sodipodi:namedview
     pagecolor="#ffffff"
     bordercolor="#666666"
     borderopacity="1"
     objecttolerance="10"
     gridtolerance="10"
     guidetolerance="10"
     inkscape:pageopacity="0"
     inkscape:pageshadow="2"
     inkscape:window-width="640"
     inkscape:window-height="480"
     id="namedview30"
     showgrid="false"
     inkscape:zoom="2.8179104"
     inkscape:cx="33.5"
     inkscape:cy="41.875"
     inkscape:window-x="0"
     inkscape:window-y="0"
     inkscape:window-maximized="0"
     inkscape:current-layer="svg28" /><g
     id="g22"><path
       d="M16.94893,50.98219c4.78696,0,8.45119-6.89007,8.7791-11.65796c0.52188-4.95781-3.58358-9.52969-8.7791-9.52969   c-5.28477,0-9.62368,4.62166-8.67458,10.51781C8.97276,44.79796,12.39661,50.98219,16.94893,50.98219z"
       id="path2" /><path
       d="M41.37648,40.31235c0.70136,4.50508,4.11333,10.66983,8.67458,10.66983c4.79969,0,8.45309-6.91782,8.7791-11.65796   c0.52188-4.95781-3.58368-9.52969-8.7791-9.52969C44.7663,29.79454,40.42749,34.4162,41.37648,40.31235z"
       id="path4" /><path
       d="M54.03207,10.79216c0-5.12114-5.37767-9.29216-11.9715-9.29216c-5.21615,0-8.19952,2.09976-9.84323,4.05701   c0.24703,0.12352,0.48456,0.24703,0.71259,0.38005c3.04988,1.71021,5.06413,4.36104,5.67221,7.29691v-0.8266h7.38242v1.90024   h-7.2304c0.019,0.25653,0.05701,0.51306,0.05701,0.7696c0,1.18765-0.22803,2.34679-0.68409,3.46793   c-0.12352,0.30404-0.25653,0.60808-0.40855,0.89311c1.38717,0.43706,3.16389,0.7506,5.25415,0.61758l6.60332,3.93349   l-0.94062-5.42518C51.97981,16.85392,54.03207,13.92755,54.03207,10.79216z M45.98456,9.15796h-7.38242V7.25772h7.38242V9.15796z"
       id="path6" /><path
       d="M31.97981,7.58076c-2.03325-1.16865-4.47506-1.78622-7.04038-1.78622c-6.60332,0-11.9715,4.17102-11.9715,9.28266   c0,3.1544,2.05226,6.07126,5.39668,7.77197l-0.94062,5.42518l6.59382-3.92399c0.30404,0.019,0.61758,0.019,0.92162,0.019   c5.29216,0,9.89074-2.63183,11.42993-6.53682c0.36105-0.89311,0.54157-1.81473,0.54157-2.75535   C36.91093,12.11283,35.05819,9.30998,31.97981,7.58076z M20.92993,15.9133h-2.70784v-1.90024h2.70784V15.9133z M26.33611,15.9133   h-2.70784v-1.90024h2.70784V15.9133z M31.74228,15.9133h-2.70784v-1.90024h2.70784V15.9133z"
       id="path8" /><path
       d="M63.71378,52.60689l-6.65083-3.73397c-1.5677,2.02375-3.58195,3.54395-5.90974,3.91449v1.76722h-1.90024v-1.72921   c-2.47031-0.28504-4.56057-1.85273-6.17577-3.93349l-6.73634,3.74347c-0.70309,0.45606-1.13064,1.23515-1.13064,2.07126v8.38005   c0,1.33017,1.09264,2.4133,2.42281,2.4133h24.8266c1.33966,0,2.4228-1.08314,2.4228-2.4133v-8.38005   C64.88242,53.87054,64.46437,53.09145,63.71378,52.60689z M51.15321,58.18409h-1.90024v-1.81473h1.90024V58.18409z"
       id="path10" /><path
       d="M30.61164,52.60689l-6.64133-3.73397c-1.6152,2.07126-3.68646,3.61045-6.07126,3.94299v1.73872h-1.90024v-1.73872   c-2.4038-0.33254-4.44656-1.89074-6.02375-3.92399l-6.73634,3.74347c-0.70309,0.45606-1.12114,1.23515-1.12114,2.07126v8.38005   c0,1.33017,1.08314,2.4133,2.4133,2.4133h24.83611c1.33017,0,2.4133-1.08314,2.4133-2.4133v-8.38005   C31.78028,53.87054,31.36223,53.09145,30.61164,52.60689z M17.89905,61.80404h-1.90024v-1.81473h1.90024V61.80404z    M17.89905,58.18409h-1.90024v-1.81473h1.90024V58.18409z"
       id="path12" /><path
       d="M27.46302,30.9437v5.19411c0,0.52513,0.42489,0.95012,0.95012,0.95012c0.52513,0,0.95012-0.42499,0.95012-0.95012V30.9437   c0-0.52522-0.42499-0.95012-0.95012-0.95012C27.88791,29.99359,27.46302,30.41848,27.46302,30.9437z"
       id="path14" /><path
       d="M33.49865,30.6829c-0.52513,0-0.95012,0.42499-0.95012,0.95012v4.5048c0,0.52513,0.42499,0.95012,0.95012,0.95012   s0.95012-0.42499,0.95012-0.95012v-4.5048C34.44877,31.10789,34.02378,30.6829,33.49865,30.6829z"
       id="path16" /><path
       d="M37.63499,30.94456v5.19411c0,0.52523,0.42499,0.95012,0.95012,0.95012s0.95012-0.42489,0.95012-0.95012v-5.19411   c0-0.52513-0.42499-0.95012-0.95012-0.95012S37.63499,30.41943,37.63499,30.94456z"
       id="path18" /><path
       d="M33.49865,26.47701c-0.52513,0-0.95012,0.42489-0.95012,0.95012v0.84152c0,0.52522,0.42499,0.95012,0.95012,0.95012   s0.95012-0.42489,0.95012-0.95012v-0.84152C34.44877,26.9019,34.02378,26.47701,33.49865,26.47701z"
       id="path20" /></g></svg>