<?xml version="1.0" encoding="UTF-8" standalone="no"?>
<svg
   xmlns:dc="http://purl.org/dc/elements/1.1/"
   xmlns:cc="http://creativecommons.org/ns#"
   xmlns:rdf="http://www.w3.org/1999/02/22-rdf-syntax-ns#"
   xmlns:svg="http://www.w3.org/2000/svg"
   xmlns="http://www.w3.org/2000/svg"
   xmlns:sodipodi="http://sodipodi.sourceforge.net/DTD/sodipodi-0.dtd"
   xmlns:inkscape="http://www.inkscape.org/namespaces/inkscape"
   version="1.1"
   x="0px"
   y="0px"
   viewBox="0 0 64 80"
   style="enable-background:new 0 0 64 64;"
   xml:space="preserve"
   id="svg16"
   sodipodi:docname="01_SVGF.svg"
   inkscape:version="0.92.4 (5da689c313, 2019-01-14)"><metadata
     id="metadata22"><rdf:RDF><cc:Work
         rdf:about=""><dc:format>image/svg+xml</dc:format><dc:type
           rdf:resource="http://purl.org/dc/dcmitype/StillImage" /></cc:Work></rdf:RDF></metadata><defs
     id="defs20" /><sodipodi:namedview
     pagecolor="#ffffff"
     bordercolor="#666666"
     borderopacity="1"
     objecttolerance="10"
     gridtolerance="10"
     guidetolerance="10"
     inkscape:pageopacity="0"
     inkscape:pageshadow="2"
     inkscape:window-width="640"
     inkscape:window-height="480"
     id="namedview18"
     showgrid="false"
     inkscape:zoom="2.95"
     inkscape:cx="32"
     inkscape:cy="40"
     inkscape:window-x="0"
     inkscape:window-y="0"
     inkscape:window-maximized="0"
     inkscape:current-layer="svg16" /><g
     id="g10"><path
       d="M24,17c0,1.537,0.443,2.968,1.197,4.188l-7.753,14.768C17.153,36.465,17,37.043,17,37.63c0,1.37,0.824,2.546,2,3.073V45h2   v-4.025c1.06-0.12,2.017-0.739,2.568-1.705l7.498-14.329C31.373,24.977,31.684,25,32,25c0.361,0,0.713-0.032,1.061-0.079L36.486,31   H35c-1.103,0-2,0.897-2,2v2c0,1.103,0.897,2,2,2h1v5.236l2.658,5.317C39.105,48.445,40.003,49,41,49s1.895-0.555,2.342-1.447   L46,42.236V37h1c1.103,0,2-0.897,2-2v-2c0-1.103-0.897-2-2-2h-2.787l-5.373-9.872C39.571,19.921,40,18.511,40,17   c0-2.953-1.613-5.532-4-6.918V4c0-1.654-1.346-3-3-3h-2c-1.654,0-3,1.346-3,3v6.082C25.613,11.468,24,14.047,24,17z M21.814,38.31   c-0.243,0.426-0.699,0.69-1.19,0.69H20.37C19.614,39,19,38.386,19,37.63c0-0.238,0.062-0.474,0.198-0.712l7.378-14.054   c0.723,0.669,1.565,1.206,2.496,1.574L21.814,38.31z M40,37v4h-2v-4H40z M41.553,46.657c-0.211,0.424-0.895,0.423-1.105,0.001   L38.618,43h4.764L41.553,46.657z M44,41h-2v-4h2V41z M47,35H35v-2l12-0.002V35z M38.782,31l-3.724-6.61   c0.904-0.376,1.721-0.916,2.423-1.578L41.937,31H38.782z M30,4c0-0.552,0.448-1,1-1h2c0.552,0,1,0.448,1,1v5.263   C33.359,9.097,32.692,9,32,9s-1.359,0.097-2,0.263V4z M32,11c3.309,0,6,2.691,6,6s-2.691,6-6,6s-6-2.691-6-6S28.691,11,32,11z"
       id="path2" /><path
       d="M32,21c2.206,0,4-1.794,4-4s-1.794-4-4-4s-4,1.794-4,4S29.794,21,32,21z M32,15c1.103,0,2,0.897,2,2s-0.897,2-2,2   s-2-0.897-2-2S30.897,15,32,15z"
       id="path4" /><path
       d="M59.448,26.484c-0.715-3.588-2.105-6.943-4.14-9.992l2.023-3.001l-6.823-6.823l-3.001,2.023   c-2.838-1.893-5.959-3.233-9.286-3.989l-0.443,1.951c3.297,0.748,6.376,2.115,9.149,4.065l0.563,0.396l2.77-1.866l4.491,4.491   l-1.866,2.77l0.396,0.563c2.211,3.145,3.665,6.656,4.323,10.436l0.118,0.678L61,28.824v6.352l-3.277,0.639l-0.118,0.678   c-0.658,3.779-2.112,7.291-4.323,10.436l-0.396,0.563l1.866,2.77l-4.491,4.491l-2.77-1.866l-0.563,0.396   c-3.145,2.211-6.656,3.665-10.436,4.323l-0.678,0.118L35.176,61h-6.352l-0.639-3.277l-0.678-0.118   c-3.779-0.658-7.291-2.112-10.436-4.323l-0.563-0.396l-2.77,1.866l-4.491-4.491l1.866-2.77l-0.396-0.563   c-2.211-3.145-3.665-6.656-4.323-10.436l-0.118-0.678L3,35.176v-6.352l3.277-0.639l0.118-0.678   c0.658-3.779,2.112-7.291,4.323-10.436l0.396-0.563l-1.866-2.77l4.491-4.491l2.77,1.866l0.563-0.396   c2.773-1.95,5.853-3.317,9.149-4.065l-0.443-1.951c-3.327,0.756-6.448,2.097-9.286,3.989l-3.001-2.023l-6.823,6.823l2.023,3.001   c-2.034,3.049-3.425,6.404-4.14,9.992L1,27.176v9.648l3.552,0.691c0.715,3.588,2.105,6.943,4.14,9.992l-2.023,3.001l6.823,6.823   l3.001-2.023c3.049,2.034,6.404,3.425,9.992,4.14L27.176,63h9.648l0.691-3.552c3.588-0.715,6.943-2.105,9.992-4.14l3.001,2.023   l6.823-6.823l-2.023-3.001c2.034-3.049,3.425-6.404,4.14-9.992L63,36.824v-9.648L59.448,26.484z"
       id="path6" /><path
       d="M24.348,11.371l-0.695-1.875C14.29,12.971,8,22.014,8,32c0,13.233,10.767,24,24,24s24-10.767,24-24   c0-9.986-6.29-19.029-15.652-22.504l-0.695,1.875C48.234,14.556,54,22.846,54,32c0,12.131-9.869,22-22,22s-22-9.869-22-22   C10,22.846,15.766,14.556,24.348,11.371z"
       id="path8" /></g></svg>