<?xml version="1.0" encoding="UTF-8" standalone="no"?>
<svg
   xmlns:dc="http://purl.org/dc/elements/1.1/"
   xmlns:cc="http://creativecommons.org/ns#"
   xmlns:rdf="http://www.w3.org/1999/02/22-rdf-syntax-ns#"
   xmlns:svg="http://www.w3.org/2000/svg"
   xmlns="http://www.w3.org/2000/svg"
   xmlns:sodipodi="http://sodipodi.sourceforge.net/DTD/sodipodi-0.dtd"
   xmlns:inkscape="http://www.inkscape.org/namespaces/inkscape"
   version="1.1"
   x="0px"
   y="0px"
   viewBox="0 0 33 41.25"
   enable-background="new 0 0 33 33"
   xml:space="preserve"
   id="svg24"
   sodipodi:docname="02_SVGF.svg"
   inkscape:version="0.92.4 (5da689c313, 2019-01-14)"><metadata
     id="metadata30"><rdf:RDF><cc:Work
         rdf:about=""><dc:format>image/svg+xml</dc:format><dc:type
           rdf:resource="http://purl.org/dc/dcmitype/StillImage" /></cc:Work></rdf:RDF></metadata><defs
     id="defs28" /><sodipodi:namedview
     pagecolor="#ffffff"
     bordercolor="#666666"
     borderopacity="1"
     objecttolerance="10"
     gridtolerance="10"
     guidetolerance="10"
     inkscape:pageopacity="0"
     inkscape:pageshadow="2"
     inkscape:window-width="640"
     inkscape:window-height="480"
     id="namedview26"
     showgrid="false"
     inkscape:zoom="5.7212121"
     inkscape:cx="16.5"
     inkscape:cy="6.6419492"
     inkscape:window-x="0"
     inkscape:window-y="0"
     inkscape:window-maximized="0"
     inkscape:current-layer="svg24" /><path
     d="M12.535,26.531"
     id="path2" /><path
     d="M8.682,5.975l0.613-2.512c0-0.098-0.092-0.177-0.207-0.177H5.664c-0.113,0-0.207,0.079-0.207,0.177l0.615,2.512  c0.4-0.148,0.842-0.229,1.305-0.229S8.279,5.826,8.682,5.975z"
     id="path4" /><path
     d="M18.151,3.286l-6.239,1.581l0.898,3.546l4.505,17.755l0.9,3.546l6.236-1.581l-0.396-1.572  c5.994-1.519,9.617-7.611,8.1-13.602c-1.521-5.996-7.611-9.625-13.604-8.1L18.151,3.286z M19.44,5.923l0.535,2.112  c0.031,0.121-0.068,0.252-0.223,0.289c-0.154,0.042-0.303-0.023-0.334-0.146l-0.537-2.113c-0.031-0.123,0.068-0.253,0.227-0.292  C19.259,5.734,19.411,5.801,19.44,5.923z M23.858,7.514c-0.15-0.044-0.256-0.142-0.236-0.218l0.381-1.356  c0.023-0.078,0.166-0.107,0.32-0.063c0.152,0.043,0.258,0.142,0.236,0.22l-0.385,1.356C24.155,7.528,24.015,7.555,23.858,7.514z   M27.626,9.748c-0.109-0.113-0.152-0.249-0.094-0.309l1.008-0.983c0.061-0.055,0.195-0.008,0.305,0.104  c0.113,0.114,0.156,0.252,0.096,0.309l-1.006,0.983C27.874,9.912,27.735,9.862,27.626,9.748z M29.198,14.024  c-0.119,0.03-0.248-0.071-0.287-0.224c-0.039-0.156,0.027-0.305,0.146-0.336l2.113-0.537c0.123-0.027,0.252,0.071,0.291,0.225  c0.039,0.152-0.027,0.305-0.148,0.335L29.198,14.024z M31.138,18.646l-1.355-0.382c-0.078-0.022-0.104-0.164-0.063-0.318  c0.043-0.149,0.139-0.258,0.219-0.233l1.355,0.382c0.08,0.02,0.105,0.164,0.063,0.317C31.313,18.563,31.216,18.67,31.138,18.646z   M28.364,23.03l-0.982-1.011c-0.057-0.059-0.01-0.194,0.104-0.307c0.111-0.109,0.25-0.151,0.309-0.092l0.982,1.006  c0.059,0.059,0.01,0.195-0.104,0.306C28.558,23.044,28.421,23.087,28.364,23.03z M20.698,26.438  c0.119-0.029,0.248,0.074,0.287,0.227c0.039,0.154-0.025,0.305-0.145,0.332l-2.115,0.537c-0.123,0.032-0.252-0.069-0.289-0.225  c-0.039-0.151,0.025-0.304,0.146-0.332L20.698,26.438z M23.216,23.248c-0.033-0.124,0.068-0.254,0.221-0.292  c0.154-0.038,0.303,0.028,0.334,0.148l0.535,2.115c0.033,0.12-0.07,0.251-0.221,0.288c-0.156,0.039-0.305-0.025-0.334-0.148  L23.216,23.248z M19.007,23.238c0.08-0.019,0.174,0.091,0.211,0.24c0.041,0.158,0.01,0.3-0.068,0.318l-1.365,0.346  c-0.082,0.021-0.176-0.089-0.213-0.243c-0.041-0.152-0.01-0.294,0.07-0.314L19.007,23.238z M18.144,19.831  c0.076-0.022,0.174,0.085,0.213,0.239c0.037,0.156,0.006,0.297-0.072,0.316l-1.37,0.346c-0.074,0.021-0.172-0.088-0.211-0.242  s-0.006-0.293,0.07-0.316L18.144,19.831z M18.104,16.207c0.117-0.029,0.248,0.072,0.287,0.226c0.041,0.154-0.027,0.304-0.148,0.336  l-2.114,0.536c-0.119,0.031-0.252-0.07-0.289-0.226c-0.039-0.153,0.025-0.304,0.148-0.333L18.104,16.207z M16.412,13.009  c0.077-0.021,0.172,0.089,0.213,0.241c0.039,0.154,0.006,0.297-0.072,0.315l-1.366,0.347c-0.078,0.02-0.172-0.09-0.213-0.242  c-0.041-0.155-0.006-0.293,0.07-0.315L16.412,13.009z M20.274,11.656c2.238-0.567,4.514,0.788,5.08,3.025s-0.789,4.51-3.023,5.08  L20.274,11.656z M15.547,9.598c0.078-0.019,0.174,0.088,0.213,0.242c0.041,0.154,0.006,0.297-0.072,0.316l-1.365,0.348  c-0.078,0.018-0.174-0.089-0.213-0.245c-0.039-0.155-0.006-0.293,0.072-0.313L15.547,9.598z M15.508,5.979  c0.119-0.029,0.25,0.072,0.289,0.223c0.037,0.155-0.029,0.306-0.146,0.336l-2.115,0.537c-0.121,0.029-0.252-0.071-0.291-0.225  c-0.037-0.154,0.027-0.305,0.148-0.334L15.508,5.979z"
     id="path6" /><path
     d="M2.232,26.531"
     id="path8" /><path
     d="M13.918,25.87l-1.516-5.128l-0.281-0.947l-1.936-6.542c-0.514,0.614-1.281,1.041-2.166,1.149l1.227,4.145l0.369,1.248  l0.059,0.197l0.223,0.75l1.684,5.695c0.152,0.512,0.732,0.815,1.295,0.681l0.201-0.05l0.092-0.022  c0.438-0.106,0.732-0.441,0.779-0.825L13.918,25.87z"
     id="path10" /><path
     d="M4.576,13.253l-1.934,6.542l-0.281,0.947L0.848,25.87l-0.031,0.351c0.047,0.384,0.344,0.719,0.777,0.825l0.092,0.022  l0.201,0.05c0.566,0.135,1.145-0.169,1.297-0.681l1.686-5.695l0.219-0.75l0.059-0.197l0.371-1.248l1.225-4.145  C5.863,14.294,5.094,13.867,4.576,13.253z"
     id="path12" /><path
     d="M0.5,27.34c0,0,0.625,0.711,1.559,0.732l-0.922,1.642L0.5,27.34z"
     id="path14" /><path
     d="M14.254,27.34c0,0-0.627,0.711-1.561,0.732l0.924,1.642L14.254,27.34z"
     id="path16" /><path
     d="M8.682,7.055c-0.402-0.174-0.842-0.27-1.305-0.27s-0.904,0.096-1.305,0.27c-1.168,0.504-1.984,1.666-1.984,3.017  c0,0.747,0.25,1.435,0.67,1.986c0.514,0.679,1.283,1.149,2.166,1.271c0.145,0.02,0.299,0.033,0.453,0.033s0.305-0.014,0.455-0.033  c0.881-0.121,1.65-0.592,2.162-1.271c0.418-0.552,0.67-1.237,0.67-1.986C10.664,8.721,9.848,7.559,8.682,7.055z M4.693,10.357  c-0.143,0-0.264-0.128-0.264-0.283c0-0.16,0.119-0.289,0.266-0.289h0.598c0.145,0,0.266,0.129,0.264,0.289  c0,0.155-0.117,0.283-0.264,0.283H4.693z M6.104,11.748L5.68,12.172c-0.102,0.1-0.275,0.096-0.387-0.014  c-0.111-0.115-0.119-0.288-0.016-0.392l0.422-0.422c0.104-0.104,0.281-0.099,0.391,0.017C6.199,11.469,6.207,11.644,6.104,11.748z   M7.662,12.754c0,0.146-0.129,0.266-0.285,0.266c-0.158,0-0.287-0.119-0.287-0.266v-0.596c0-0.146,0.129-0.266,0.287-0.266  c0.156,0,0.285,0.119,0.285,0.266V12.754z M7.377,11.4c-0.732,0-1.326-0.594-1.326-1.329c0-0.733,0.594-1.327,1.326-1.327  c0.729,0,1.326,0.594,1.326,1.327C8.703,10.807,8.105,11.4,7.377,11.4z M9.461,12.157c-0.113,0.11-0.287,0.118-0.391,0.015  L8.648,11.75c-0.104-0.104-0.096-0.277,0.016-0.389c0.111-0.112,0.285-0.119,0.389-0.016l0.422,0.422  C9.578,11.871,9.57,12.047,9.461,12.157z M10.059,10.36H9.461c-0.145,0-0.264-0.129-0.264-0.286c0-0.158,0.119-0.287,0.264-0.287  h0.598c0.146,0,0.266,0.129,0.266,0.287C10.324,10.231,10.205,10.358,10.059,10.36z"
     id="path18" /></svg>