<?xml version="1.0" encoding="UTF-8" standalone="no"?>
<svg
   xmlns:dc="http://purl.org/dc/elements/1.1/"
   xmlns:cc="http://creativecommons.org/ns#"
   xmlns:rdf="http://www.w3.org/1999/02/22-rdf-syntax-ns#"
   xmlns:svg="http://www.w3.org/2000/svg"
   xmlns="http://www.w3.org/2000/svg"
   xmlns:sodipodi="http://sodipodi.sourceforge.net/DTD/sodipodi-0.dtd"
   xmlns:inkscape="http://www.inkscape.org/namespaces/inkscape"
   version="1.1"
   x="0px"
   y="0px"
   viewBox="0 0 52 65"
   style="enable-background:new 0 0 52 52;"
   xml:space="preserve"
   id="svg8"
   sodipodi:docname="03_SVGF.svg"
   inkscape:version="0.92.4 (5da689c313, 2019-01-14)"><metadata
     id="metadata14"><rdf:RDF><cc:Work
         rdf:about=""><dc:format>image/svg+xml</dc:format><dc:type
           rdf:resource="http://purl.org/dc/dcmitype/StillImage" /></cc:Work></rdf:RDF></metadata><defs
     id="defs12" /><sodipodi:namedview
     pagecolor="#ffffff"
     bordercolor="#666666"
     borderopacity="1"
     objecttolerance="10"
     gridtolerance="10"
     guidetolerance="10"
     inkscape:pageopacity="0"
     inkscape:pageshadow="2"
     inkscape:window-width="640"
     inkscape:window-height="480"
     id="namedview10"
     showgrid="false"
     inkscape:zoom="3.6307692"
     inkscape:cx="26"
     inkscape:cy="32.5"
     inkscape:window-x="0"
     inkscape:window-y="0"
     inkscape:window-maximized="0"
     inkscape:current-layer="svg8" /><path
     d="M49.7909622,43.3882904L38.8699417,29.2665253c1.5377808-1.6593628,2.7747803-3.6422119,3.5831299-5.8982544  c0.1054688-0.2949219,0.1899414-0.5913086,0.2734375-0.8876953l0.0556641-0.1972656  c0.1518555-0.5307617-0.1552734-1.0844727-0.6865234-1.2363281c-0.5288086-0.152832-1.0849609,0.1547852-1.2363281,0.6865234  l-0.0581055,0.2050781c-0.0708008,0.2519531-0.1411133,0.5039063-0.230957,0.7543945  c-0.6747437,1.8830566-1.6932373,3.5448608-2.9477539,4.9605713l-6.1671143-7.9746094  c0.5238647-1.3138428,0.5690918-2.7474365,0.0803833-4.0845947c-0.406189-1.1403809-1.1556396-2.0940552-2.1375122-2.7757568  l2.0689697-4.3922119c0.2353516-0.4995112,0.0209961-1.0957026-0.4785156-1.3310542  c-0.4980469-0.2348633-1.0957031-0.0214844-1.3310547,0.4785156l-2.0704956,4.3953853  c-0.4957886-0.1362915-1.0040283-0.2149048-1.5214233-0.2149048c-2.25,0-4.3200073,1.3099976-5.2799683,3.3400269  c-0.6600342,1.3999634-0.7300415,2.9699707-0.2000122,4.4299927c0.0183105,0.0513306,0.0492554,0.0950928,0.0689087,0.1456909  L2.2118602,43.2789154c-0.3398439,0.4355469-0.2626954,1.0639648,0.1723633,1.4038086  c0.1831055,0.1425781,0.3999023,0.2119141,0.6152344,0.2119141c0.296875,0,0.5913086-0.1318359,0.7885742-0.3842773  l10.8756104-13.9219971c1.6473398,1.4324951,3.5032969,2.5460205,5.5579844,3.2735596  c1.9233398,0.6816406,3.8886719,1.0048828,5.8227539,1.0048828c4.1933594,0,8.2305908-1.5292969,11.3704224-4.2125244  L48.208931,44.6119232c0.1972656,0.2548828,0.4926758,0.3881836,0.7915039,0.3881836  c0.2138672,0,0.4291992-0.0683594,0.6113281-0.2089844C50.0487747,44.4532318,50.1288528,43.8253021,49.7909622,43.3882904z   M20.889595,31.9771576c-1.848938-0.6552734-3.517334-1.6636963-4.9945078-2.96521l5.8804941-7.5276489  c0.5062256,0.5450439,1.1195679,0.9943848,1.8201904,1.3200073c0.7799683,0.3699951,1.6099854,0.5500488,2.4599609,0.5500488  c1.6409912,0,3.1807861-0.7026367,4.2695313-1.8673706l5.8666992,7.5861206  C32.1272049,32.5938568,26.3211136,33.9008636,20.889595,31.9771576z"
     id="path2" /></svg>