<?xml version="1.0" encoding="UTF-8" standalone="no"?>
<svg
   xmlns:dc="http://purl.org/dc/elements/1.1/"
   xmlns:cc="http://creativecommons.org/ns#"
   xmlns:rdf="http://www.w3.org/1999/02/22-rdf-syntax-ns#"
   xmlns:svg="http://www.w3.org/2000/svg"
   xmlns="http://www.w3.org/2000/svg"
   xmlns:sodipodi="http://sodipodi.sourceforge.net/DTD/sodipodi-0.dtd"
   xmlns:inkscape="http://www.inkscape.org/namespaces/inkscape"
   viewBox="0 0 64 80"
   x="0px"
   y="0px"
   version="1.1"
   id="svg20"
   sodipodi:docname="05_SVG.svg"
   inkscape:version="0.92.4 (5da689c313, 2019-01-14)">
  <metadata
     id="metadata26">
    <rdf:RDF>
      <cc:Work
         rdf:about="">
        <dc:format>image/svg+xml</dc:format>
        <dc:type
           rdf:resource="http://purl.org/dc/dcmitype/StillImage" />
      </cc:Work>
    </rdf:RDF>
  </metadata>
  <defs
     id="defs24" />
  <sodipodi:namedview
     pagecolor="#ffffff"
     bordercolor="#666666"
     borderopacity="1"
     objecttolerance="10"
     gridtolerance="10"
     guidetolerance="10"
     inkscape:pageopacity="0"
     inkscape:pageshadow="2"
     inkscape:window-width="640"
     inkscape:window-height="480"
     id="namedview22"
     showgrid="false"
     inkscape:zoom="2.95"
     inkscape:cx="32"
     inkscape:cy="40"
     inkscape:window-x="0"
     inkscape:window-y="0"
     inkscape:window-maximized="0"
     inkscape:current-layer="svg20" />
  <path
     d="M53.6,38.031l-1.566,3.132,2.028,13.186L50,58.414l-4.065-4.065,2.028-13.186L46.4,38.031A7.006,7.006,0,0,0,40,45V60H60V45A7.006,7.006,0,0,0,53.6,38.031Z"
     id="path2" />
  <path
     d="M54.617,29.911A9.048,9.048,0,0,0,48,27H45v1a5,5,0,0,0,9.617,1.911Z"
     id="path4" />
  <polygon
     points="38 5.414 38 12 44.586 12 38 5.414"
     id="polygon6" />
  <polygon
     points="51.382 38 48.618 38 50 40.764 51.382 38"
     id="polygon8" />
  <path
     d="M45,25h3a11.051,11.051,0,0,1,6.948,2.484A4.989,4.989,0,0,0,50,23H45Z"
     id="path10" />
  <polygon
     points="50 55.586 51.935 53.651 50 41.077 48.065 53.651 50 55.586"
     id="polygon12" />
  <path
     d="M46,36.059V33.736A6.992,6.992,0,0,1,43,28V21h3V14H36V4H4V58H38V45A9.01,9.01,0,0,1,46,36.059ZM18,10H33v2H18Zm0,4H33v2H18ZM14.707,51.293l-1.414,1.414L11,50.414,8.707,52.707,7.293,51.293,9.586,49,7.293,46.707l1.414-1.414L11,47.586l2.293-2.293,1.414,1.414L12.414,49Zm0-12-1.414,1.414L11,38.414,8.707,40.707,7.293,39.293,9.586,37,7.293,34.707l1.414-1.414L11,35.586l2.293-2.293,1.414,1.414L12.414,37ZM10,28.414,7.293,25.707l1.414-1.414L10,25.586l3.293-3.293,1.414,1.414Zm0-12L7.293,13.707l1.414-1.414L10,13.586l3.293-3.293,1.414,1.414ZM35,52H18V50H35Zm0-4H18V46H35Zm1-8H18V38H36Zm0-4H18V34H36Zm4-8H18V26H40Zm0-4H18V22H40Z"
     id="path14" />
</svg>
