<?xml version="1.0" encoding="UTF-8" standalone="no"?>
<svg
   xmlns:dc="http://purl.org/dc/elements/1.1/"
   xmlns:cc="http://creativecommons.org/ns#"
   xmlns:rdf="http://www.w3.org/1999/02/22-rdf-syntax-ns#"
   xmlns:svg="http://www.w3.org/2000/svg"
   xmlns="http://www.w3.org/2000/svg"
   xmlns:sodipodi="http://sodipodi.sourceforge.net/DTD/sodipodi-0.dtd"
   xmlns:inkscape="http://www.inkscape.org/namespaces/inkscape"
   version="1.1"
   x="0px"
   y="0px"
   viewBox="0 0 66 82.5"
   enable-background="new 0 0 66 66"
   xml:space="preserve"
   id="svg56"
   sodipodi:docname="06_SVGF.svg"
   inkscape:version="0.92.4 (5da689c313, 2019-01-14)"><metadata
     id="metadata62"><rdf:RDF><cc:Work
         rdf:about=""><dc:format>image/svg+xml</dc:format><dc:type
           rdf:resource="http://purl.org/dc/dcmitype/StillImage" /></cc:Work></rdf:RDF></metadata><defs
     id="defs60" /><sodipodi:namedview
     pagecolor="#ffffff"
     bordercolor="#666666"
     borderopacity="1"
     objecttolerance="10"
     gridtolerance="10"
     guidetolerance="10"
     inkscape:pageopacity="0"
     inkscape:pageshadow="2"
     inkscape:window-width="640"
     inkscape:window-height="480"
     id="namedview58"
     showgrid="false"
     inkscape:zoom="2.8606061"
     inkscape:cx="33"
     inkscape:cy="41.25"
     inkscape:window-x="0"
     inkscape:window-y="0"
     inkscape:window-maximized="0"
     inkscape:current-layer="svg56" /><g
     id="g50"><g
       id="g4"><path
         d="M46,39.6l-6.4-4.2l-6,9.3c-0.3,0.5-0.2,1.1,0.3,1.4l1.4,0.9c0.4,0.3,1,0.2,1.3-0.2c1.5-2,4-2.7,4.4-2.8    C43.9,43.6,45.4,41.4,46,39.6z"
         id="path2" /></g><g
       id="g8"><polygon
         points="40,33.4 47.9,38.5 55.3,27.2 47.4,22.1   "
         id="polygon6" /></g><g
       id="g12"><path
         d="M64.9,17.2L63,16l0.5-0.8c1.3-2.1,0.8-4.9-1.3-6.2l-1-0.7C59.1,7,56.3,7.6,55,9.6l-6.8,10.5l8.6,5.6l5.3-8.1l1,0.7    l-4.8,7.4c-0.5,0.8,0.4,1.8,0.9,1.5c0.3,0,0.6-0.2,0.8-0.5l5.4-8.2C65.5,18.1,65.3,17.4,64.9,17.2z"
         id="path10" /></g><g
       id="g16"><path
         d="M13.9,13.7h20.2c0.5,0,1-0.4,1-1V6.4c0-0.6-0.5-1-1-1h-5.5V5.1c0-2.6-2.1-4.6-4.6-4.6c-2.6,0-4.6,2.1-4.6,4.6v0.2h-5.5    c-0.6,0-1,0.4-1,1v6.4C12.9,13.3,13.4,13.7,13.9,13.7z"
         id="path14" /></g><g
       id="g20"><rect
         x="12.8"
         y="47.6"
         width="7"
         height="7"
         id="rect18" /></g><g
       id="g24"><rect
         x="12.8"
         y="19"
         width="7"
         height="7"
         id="rect22" /></g><g
       id="g28"><rect
         x="12.8"
         y="33.3"
         width="7"
         height="7"
         id="rect26" /></g><g
       id="g32"><polygon
         points="31.8,57.7 38.7,50.9 31.8,50.9   "
         id="polygon30" /></g><g
       id="g36"><path
         d="M29.8,49.9c0-0.5,0.5-1,1-1h3.7c-3.2-1.5-3.7-3.6-2.7-5.3l5.8-8.9C37.5,34.9,37.3,35,37,35H24.7c-0.5,0-1-0.5-1-1    c0-0.5,0.5-1,1-1H37c0.3,0,0.5,0.1,0.7,0.3l2.3-3.6v-21h-2.9v4.2c0,1.7-1.3,3-3,3H13.9c-1.7,0-3-1.3-3-3V8.6H8v50.5h21.8V49.9z     M24.7,18.7H37c0.6,0,1,0.5,1,1c0,0.6-0.4,1-1,1H24.7c-0.5,0-1-0.4-1-1C23.7,19.1,24.1,18.7,24.7,18.7z M24.7,24.2h6.5    c0.5,0,1,0.5,1,1c0,0.6-0.4,1-1,1h-6.5c-0.5,0-1-0.4-1-1C23.7,24.7,24.1,24.2,24.7,24.2z M21.8,55.5c0,0.6-0.5,1-1,1h-8.9    c-0.6,0-1-0.4-1-1v-8.9c0-0.6,0.4-1,1-1h8.9c0.5,0,1,0.4,1,1V55.5z M21.8,41.2c0,0.5-0.5,1-1,1h-8.9c-0.6,0-1-0.5-1-1v-9    c0-0.6,0.4-1,1-1h8.9c0.5,0,1,0.4,1,1V41.2z M21.8,26.9c0,0.6-0.5,1-1,1h-8.9c-0.6,0-1-0.4-1-1V18c0-0.6,0.4-1,1-1h8.9    c0.5,0,1,0.4,1,1V26.9z M23.7,39.5c0-0.6,0.5-1,1-1h6.5c0.5,0,1,0.4,1,1c0,0.5-0.4,1-1,1h-6.5C24.1,40.5,23.7,40.1,23.7,39.5z"
         id="path34" /></g><g
       id="g40"><path
         d="M40.1,46.4c-0.7,0.3-1.4,0.8-2,1.5c-0.3,0.4-0.7,0.7-1.2,0.9h3.2V46.4z"
         id="path38" /></g><g
       id="g44"><path
         d="M47.5,17.5v-6.3c0-1.5-1.2-2.6-2.6-2.6h-2.7v17.9L47.5,17.5z"
         id="path42" /></g><g
       id="g48"><path
         d="M42.1,45.8v4.1c0,0.2-0.1,0.5-0.3,0.7C30.9,61.4,31.6,60.9,31.2,61.1c-0.1,0-0.3,0.1-0.4,0.1H7c-0.5,0-1-0.4-1-1V8.6H3.3    c-1.5,0-2.6,1.2-2.6,2.6v51.6c0,1.5,1.2,2.6,2.6,2.6h41.5c1.5,0,2.6-1.2,2.6-2.6V41.3C46.4,43.6,44.5,45.2,42.1,45.8z"
         id="path46" /></g></g></svg>