<?xml version="1.0" encoding="UTF-8" standalone="no"?>
<svg
   xmlns:dc="http://purl.org/dc/elements/1.1/"
   xmlns:cc="http://creativecommons.org/ns#"
   xmlns:rdf="http://www.w3.org/1999/02/22-rdf-syntax-ns#"
   xmlns:svg="http://www.w3.org/2000/svg"
   xmlns="http://www.w3.org/2000/svg"
   xmlns:sodipodi="http://sodipodi.sourceforge.net/DTD/sodipodi-0.dtd"
   xmlns:inkscape="http://www.inkscape.org/namespaces/inkscape"
   version="1.1"
   x="0px"
   y="0px"
   viewBox="0 0 90 112.5"
   style="enable-background:new 0 0 90 90;"
   xml:space="preserve"
   id="svg14"
   sodipodi:docname="07_SVGF.svg"
   inkscape:version="0.92.4 (5da689c313, 2019-01-14)"><metadata
     id="metadata20"><rdf:RDF><cc:Work
         rdf:about=""><dc:format>image/svg+xml</dc:format><dc:type
           rdf:resource="http://purl.org/dc/dcmitype/StillImage" /></cc:Work></rdf:RDF></metadata><defs
     id="defs18" /><sodipodi:namedview
     pagecolor="#ffffff"
     bordercolor="#666666"
     borderopacity="1"
     objecttolerance="10"
     gridtolerance="10"
     guidetolerance="10"
     inkscape:pageopacity="0"
     inkscape:pageshadow="2"
     inkscape:window-width="640"
     inkscape:window-height="480"
     id="namedview16"
     showgrid="false"
     inkscape:zoom="2.0977778"
     inkscape:cx="45"
     inkscape:cy="56.25"
     inkscape:window-x="0"
     inkscape:window-y="0"
     inkscape:window-maximized="0"
     inkscape:current-layer="svg14" /><g
     id="g8"><rect
       x="74.3800049"
       y="42.9699707"
       width="3"
       height="3"
       id="rect2" /><rect
       x="74.3800049"
       y="34.25"
       width="3"
       height="3"
       id="rect4" /><path
       d="M84.289978,56.2099609V25.3999634L74.5,8.0799561H45.9799805v13.3500366h1.710022v10.4400024v2h0.3299561   l3.4100342,8.2099609l3.4099731-8.2099609h0.3300171v-2V21.4299927h3.1699829v-5.4000244h8.2999878V47.539978H41.5199585v8.6699829   h3.1100464v5.0300293H26.4799805V47.0199585h2.7000122V32.8200073h3.2399902v1   c0,1.6099854,1.3099976,2.9299927,2.9299927,2.9299927s2.9400024-1.3200073,2.9400024-2.9299927V21.289978   c0-1.6199951-1.3200073-2.9400024-2.9400024-2.9400024s-2.9299927,1.3200073-2.9299927,2.9400024v1h-3.2399902V8.0799561   h-8.9800415l-0.5899658,0.6300049l-13.9000244,14.75v23.5599976h1.6199951v34.9000244h9.2600098l5.5100098-7.6900024h43.2000122   l5.5800171,7.6900024H80.5V61.2399902h-2.3400269v-5.0300293H84.289978z M53.1699829,31.8699951h-3.4799805V21.4299927h3.4799805   V31.8699951z M34.4199829,21.289978c0-0.5200195,0.4199829-0.9400024,0.9299927-0.9400024   c0.5200195,0,0.9400024,0.4199829,0.9400024,0.9400024v12.5300293c0,0.5099487-0.4199829,0.9299927-0.9400024,0.9299927   c-0.5100098,0-0.9299927-0.4200439-0.9299927-0.9299927V21.289978z M7.7099609,45.0199585V24.25l13.3500366-14.1700439h6.1199951   v22.7400513v12.1999512H7.7099609z M72.3800049,32.25h7v7h-7V32.25z M76.1599731,61.2399902H46.6300049v-5.0300293h29.5299683   V61.2399902z M72.3800049,47.9699707v-7h7v7H72.3800049z"
       id="path6" /></g></svg>