<?xml version="1.0" encoding="UTF-8" standalone="no"?>
<svg
   xmlns:dc="http://purl.org/dc/elements/1.1/"
   xmlns:cc="http://creativecommons.org/ns#"
   xmlns:rdf="http://www.w3.org/1999/02/22-rdf-syntax-ns#"
   xmlns:svg="http://www.w3.org/2000/svg"
   xmlns="http://www.w3.org/2000/svg"
   xmlns:sodipodi="http://sodipodi.sourceforge.net/DTD/sodipodi-0.dtd"
   xmlns:inkscape="http://www.inkscape.org/namespaces/inkscape"
   data-name="Layer 1"
   viewBox="0 0 58.67 85.1"
   x="0px"
   y="0px"
   version="1.1"
   id="svg24"
   sodipodi:docname="09_SVGF.svg"
   inkscape:version="0.92.4 (5da689c313, 2019-01-14)">
  <metadata
     id="metadata30">
    <rdf:RDF>
      <cc:Work
         rdf:about="">
        <dc:format>image/svg+xml</dc:format>
        <dc:type
           rdf:resource="http://purl.org/dc/dcmitype/StillImage" />
      </cc:Work>
    </rdf:RDF>
  </metadata>
  <defs
     id="defs28" />
  <sodipodi:namedview
     pagecolor="#ffffff"
     bordercolor="#666666"
     borderopacity="1"
     objecttolerance="10"
     gridtolerance="10"
     guidetolerance="10"
     inkscape:pageopacity="0"
     inkscape:pageshadow="2"
     inkscape:window-width="640"
     inkscape:window-height="480"
     id="namedview26"
     showgrid="false"
     inkscape:zoom="2.773208"
     inkscape:cx="29.334999"
     inkscape:cy="42.549999"
     inkscape:window-x="0"
     inkscape:window-y="0"
     inkscape:window-maximized="0"
     inkscape:current-layer="svg24" />
  <title
     id="title2">80</title>
  <path
     d="M527.74,1847.94H500.67v-32h27.08v32Zm-25.9-1.18h24.72v-29.63H501.84v29.63Z"
     transform="translate(-500.67 -1815.96)"
     id="path4" />
  <path
     d="M559.33,1847.94H532.26v-32h27.08v32Zm-25.9-1.18h24.72v-29.63H533.43v29.63Z"
     transform="translate(-500.67 -1815.96)"
     id="path6" />
  <path
     d="M527.74,1884H500.67v-32h27.08v32Zm-25.9-1.18h24.72v-29.63H501.84v29.63Z"
     transform="translate(-500.67 -1815.96)"
     id="path8" />
  <path
     d="M559.33,1884H532.26v-32h27.08v32Zm-25.9-1.18h24.72v-29.63H533.43v29.63Z"
     transform="translate(-500.67 -1815.96)"
     id="path10" />
  <path
     d="M507.11,1826.06l5,5-5,5a1.47,1.47,0,1,0,2.08,2.08l5-5,5,5a1.47,1.47,0,0,0,2.08-2.08l-5-5,5-5a1.47,1.47,0,0,0-2.08-2.08l-5,5-5-5A1.47,1.47,0,1,0,507.11,1826.06Z"
     transform="translate(-500.67 -1815.96)"
     id="path12" />
  <path
     d="M538.7,1863l5,5-5,5a1.47,1.47,0,1,0,2.08,2.08l5-5,5,5a1.47,1.47,0,1,0,2.08-2.08l-5-5,5-5a1.47,1.47,0,1,0-2.08-2.08l-5,5-5-5A1.47,1.47,0,0,0,538.7,1863Z"
     transform="translate(-500.67 -1815.96)"
     id="path14" />
  <circle
     cx="13.54"
     cy="52.09"
     r="9.52"
     id="circle16" />
  <circle
     cx="45.13"
     cy="15.99"
     r="9.52"
     id="circle18" />
</svg>
