<?xml version="1.0" encoding="UTF-8" standalone="no"?>
<svg
   xmlns:dc="http://purl.org/dc/elements/1.1/"
   xmlns:cc="http://creativecommons.org/ns#"
   xmlns:rdf="http://www.w3.org/1999/02/22-rdf-syntax-ns#"
   xmlns:svg="http://www.w3.org/2000/svg"
   xmlns="http://www.w3.org/2000/svg"
   xmlns:sodipodi="http://sodipodi.sourceforge.net/DTD/sodipodi-0.dtd"
   xmlns:inkscape="http://www.inkscape.org/namespaces/inkscape"
   viewBox="0 0 60 75"
   x="0px"
   y="0px"
   version="1.1"
   id="svg24"
   sodipodi:docname="10_SVGF.svg"
   inkscape:version="0.92.4 (5da689c313, 2019-01-14)">
  <metadata
     id="metadata30">
    <rdf:RDF>
      <cc:Work
         rdf:about="">
        <dc:format>image/svg+xml</dc:format>
        <dc:type
           rdf:resource="http://purl.org/dc/dcmitype/StillImage" />
      </cc:Work>
    </rdf:RDF>
  </metadata>
  <defs
     id="defs28" />
  <sodipodi:namedview
     pagecolor="#ffffff"
     bordercolor="#666666"
     borderopacity="1"
     objecttolerance="10"
     gridtolerance="10"
     guidetolerance="10"
     inkscape:pageopacity="0"
     inkscape:pageshadow="2"
     inkscape:window-width="640"
     inkscape:window-height="480"
     id="namedview26"
     showgrid="false"
     inkscape:zoom="3.1466667"
     inkscape:cx="30"
     inkscape:cy="37.5"
     inkscape:window-x="0"
     inkscape:window-y="0"
     inkscape:window-maximized="0"
     inkscape:current-layer="svg24" />
  <title
     id="title2">- Shipping and Delivery - Colour - 49-Multiple Delivery</title>
  <g
     data-name="Layer 1"
     id="g18">
    <path
       d="M15.95209,46.76227a.9922.9922,0,0,0-.05481-.18774c-.006-.01276-.00488-.02673-.01154-.03937l-2.625-5A1.00006,1.00006,0,0,0,12.375,41H3.4707a1.00012,1.00012,0,0,0-.89648.55664l-2.4707,5c-.00446.009-.0033.01886-.00745.02789a1.0016,1.0016,0,0,0-.05054.18982.99439.99439,0,0,0-.03992.19794C.00531,46.98206,0,46.99017,0,47V59a.99942.99942,0,0,0,1,1H15a.99942.99942,0,0,0,1-1V47c0-.01373-.00726-.02515-.00781-.03876A.98842.98842,0,0,0,15.95209,46.76227ZM13.34534,46H9V43h2.77051ZM4.0918,43H7v3H2.60962ZM14,58H2V48H14Z"
       id="path4" />
    <path
       d="M7,52H9a1,1,0,0,0,0-2H7a1,1,0,0,0,0,2Z"
       id="path6" />
    <path
       d="M37.95209,46.76227a.9922.9922,0,0,0-.05481-.18774c-.006-.01276-.00488-.02673-.01154-.03937l-2.625-5A1.00006,1.00006,0,0,0,34.375,41H25.4707a1.00012,1.00012,0,0,0-.89648.55664l-2.4707,5c-.00446.009-.0033.01886-.00745.02789a3.25472,3.25472,0,0,0-.09045.38776C22.00531,46.98206,22,46.99017,22,47V59a.99942.99942,0,0,0,1,1H37a.99942.99942,0,0,0,1-1V47c0-.01373-.00726-.02515-.00781-.03876A.98842.98842,0,0,0,37.95209,46.76227ZM35.34534,46H31V43h2.77051ZM26.0918,43H29v3H24.60962ZM36,58H24V48H36Z"
       id="path8" />
    <path
       d="M29,52h2a1,1,0,0,0,0-2H29a1,1,0,0,0,0,2Z"
       id="path10" />
    <path
       d="M59.99219,46.96124a2.34037,2.34037,0,0,0-.09491-.38672c-.006-.01276-.00488-.02673-.01154-.03937l-2.625-5A1.00006,1.00006,0,0,0,56.375,41H47.4707a1.00012,1.00012,0,0,0-.89648.55664l-2.4707,5c-.00446.009-.0033.01886-.00745.02789a3.25472,3.25472,0,0,0-.09045.38776C44.00531,46.98206,44,46.99017,44,47V59a.99942.99942,0,0,0,1,1H59a.99942.99942,0,0,0,1-1V47C60,46.98627,59.99274,46.97485,59.99219,46.96124ZM57.34534,46H53V43h2.77051ZM48.0918,43H51v3H46.60962ZM58,58H46V48H58Z"
       id="path12" />
    <path
       d="M51,52h2a1,1,0,0,0,0-2H51a1,1,0,0,0,0,2Z"
       id="path14" />
    <path
       d="M8,39a.99942.99942,0,0,0,1-1V30H29v8a1,1,0,0,0,2,0V30H51v8a1,1,0,0,0,2,0V29a.99942.99942,0,0,0-1-1H31V21h3a.99942.99942,0,0,0,1-1V12h4a1.00006,1.00006,0,0,0,.74316-1.66895l-9-10a1.031,1.031,0,0,0-1.48633,0l-9,10A1.00006,1.00006,0,0,0,21,12h4v8a.99942.99942,0,0,0,1,1h3v7H8a.99942.99942,0,0,0-1,1v9A.99942.99942,0,0,0,8,39ZM27,19V11a.99942.99942,0,0,0-1-1H23.24512L30,2.49512,36.75488,10H34a.99942.99942,0,0,0-1,1v8Z"
       id="path16" />
  </g>
</svg>
