<?xml version="1.0" encoding="UTF-8" standalone="no"?>
<svg
   xmlns:dc="http://purl.org/dc/elements/1.1/"
   xmlns:cc="http://creativecommons.org/ns#"
   xmlns:rdf="http://www.w3.org/1999/02/22-rdf-syntax-ns#"
   xmlns:svg="http://www.w3.org/2000/svg"
   xmlns="http://www.w3.org/2000/svg"
   xmlns:sodipodi="http://sodipodi.sourceforge.net/DTD/sodipodi-0.dtd"
   xmlns:inkscape="http://www.inkscape.org/namespaces/inkscape"
   version="1.1"
   x="0px"
   y="0px"
   viewBox="0 0 50 62.5"
   enable-background="new 0 0 50 50"
   xml:space="preserve"
   id="svg36"
   sodipodi:docname="11_SVGF.svg"
   inkscape:version="0.92.4 (5da689c313, 2019-01-14)"><metadata
     id="metadata42"><rdf:RDF><cc:Work
         rdf:about=""><dc:format>image/svg+xml</dc:format><dc:type
           rdf:resource="http://purl.org/dc/dcmitype/StillImage" /></cc:Work></rdf:RDF></metadata><defs
     id="defs40" /><sodipodi:namedview
     pagecolor="#ffffff"
     bordercolor="#666666"
     borderopacity="1"
     objecttolerance="10"
     gridtolerance="10"
     guidetolerance="10"
     inkscape:pageopacity="0"
     inkscape:pageshadow="2"
     inkscape:window-width="640"
     inkscape:window-height="480"
     id="namedview38"
     showgrid="false"
     inkscape:zoom="3.776"
     inkscape:cx="25"
     inkscape:cy="31.25"
     inkscape:window-x="0"
     inkscape:window-y="0"
     inkscape:window-maximized="0"
     inkscape:current-layer="svg36" /><g
     id="g30"><path
       d="M45.4663,5.9803H16.5662c-1.952,0-3.5437,1.5916-3.5437,3.5437v6.6369   c0.7108,0.1502,1.3915,0.4204,2.0021,0.7808V9.524c0-0.8509,0.6907-1.5416,1.5416-1.5416h28.9001   c0.8409,0,1.5316,0.6907,1.5316,1.5416v19.9407c0,0.8509-0.6907,1.5416-1.5316,1.5416h-24.095   c0.5405,0.5806,0.971,1.2513,1.2413,2.0021h22.8538c1.952,0,3.5337-1.5917,3.5337-3.5437V9.524   C49,7.5719,47.4183,5.9803,45.4663,5.9803z"
       id="path2" /><path
       d="M40.3635,14.7394h3.0031c0.3628,0,0.6569-0.2941,0.6569-0.6569v-2.7841   c0-0.3628-0.2941-0.6569-0.6569-0.6569h-3.0031c-0.3628,0-0.6569,0.2941-0.6569,0.6569v2.7841   C39.7066,14.4453,40.0007,14.7394,40.3635,14.7394z"
       id="path4" /><path
       d="M39.7066,20.8865c0,0.3628,0.2941,0.6569,0.6569,0.6569h3.0031c0.3628,0,0.6569-0.2941,0.6569-0.6569   v-2.7841c0-0.3629-0.2941-0.6569-0.6569-0.6569h-3.0031c-0.3628,0-0.6569,0.2941-0.6569,0.6569V20.8865z"
       id="path6" /><path
       d="M39.7066,27.6904c0,0.3629,0.2941,0.6569,0.6569,0.6569h3.0031c0.3628,0,0.6569-0.2941,0.6569-0.6569   v-2.7842c0-0.3628-0.2941-0.6569-0.6569-0.6569h-3.0031c-0.3628,0-0.6569,0.2941-0.6569,0.6569V27.6904z"
       id="path8" /><polygon
       points="37.9547,13.5194 37.9547,11.8614 33.9818,11.8614 33.0433,11.8614 32.4803,11.8614    32.4803,18.6654 29.6961,18.6654 29.6961,20.3234 32.4803,20.3234 32.4803,27.1273 33.0433,27.1273 33.9818,27.1273    37.9547,27.1273 37.9547,25.4694 33.9818,25.4694 33.9818,20.3234 37.9547,20.3234 37.9547,18.6654 33.9818,18.6654    33.9818,13.5194  "
       id="polygon10" /><path
       d="M21.0264,11.8927v1.2014c-0.5437,0.144-1.0217,0.4389-1.3894,0.8427l-0.9561-0.6235l-0.7977,1.2232   l1.0711,0.6984c-0.0464,0.2052-0.0756,0.4166-0.0756,0.6357c0,0.2707,0.05,0.5277,0.1207,0.7764l-0.906,0.5908l0.7977,1.2232   l0.8446-0.5507c0.3523,0.3477,0.7975,0.5962,1.2909,0.7268v1.0763h1.4604V18.64c0.5157-0.1349,0.9759-0.4016,1.3351-0.7724   l0.9101,0.5935l0.7977-1.2232l-0.9965-0.6498c0.0598-0.2307,0.1015-0.4683,0.1015-0.7174c0-0.272-0.0494-0.5298-0.1194-0.7793   l1.0144-0.6615l-0.7977-1.2232l-0.9468,0.6175c-0.3532-0.3518-0.8009-0.6027-1.2983-0.7328v-1.1985H21.0264z M23.4935,15.8706   c0,0.9509-0.7808,1.7218-1.7318,1.7218c-0.961,0-1.7318-0.7708-1.7318-1.7218c0-0.961,0.7708-1.7318,1.7318-1.7318   C22.7126,14.1388,23.4935,14.9096,23.4935,15.8706z"
       id="path12" /><circle
       cx="21.7566"
       cy="15.8656"
       r="0.7302"
       id="circle14" /><path
       d="M25.8626,17.7195v0.7725c-0.3496,0.0926-0.657,0.2823-0.8934,0.5419l-0.6148-0.4009l-0.5129,0.7865   l0.6887,0.4491c-0.0298,0.1319-0.0486,0.2679-0.0486,0.4088c0,0.174,0.0321,0.3393,0.0776,0.4992l-0.5826,0.3799l0.5129,0.7865   l0.543-0.3541c0.2266,0.2236,0.5128,0.3834,0.8301,0.4673v0.6921h0.939v-0.6902c0.3316-0.0868,0.6275-0.2583,0.8585-0.4967   l0.5851,0.3816l0.5129-0.7865l-0.6407-0.4179c0.0384-0.1483,0.0653-0.3012,0.0653-0.4612c0-0.1749-0.0318-0.3407-0.0768-0.5011   l0.6523-0.4254l-0.5129-0.7865l-0.6089,0.397c-0.2271-0.2262-0.515-0.3875-0.8348-0.4712v-0.7706H25.8626z M27.4489,20.2774   c0,0.6114-0.502,1.1071-1.1136,1.1071c-0.6179,0-1.1135-0.4957-1.1135-1.1071c0-0.618,0.4956-1.1136,1.1135-1.1136   C26.9468,19.1637,27.4489,19.6594,27.4489,20.2774z"
       id="path16" /><circle
       cx="26.3321"
       cy="20.2741"
       r="0.4695"
       id="circle18" /><path
       d="M24.7763,22.3763l-0.7148,0.4661c-0.2666-0.2656-0.6046-0.4549-0.9801-0.5532v-0.9048h-1.1024v0.9069   c-0.4105,0.1088-0.7713,0.3314-1.0489,0.6362l-0.7217-0.4707l-0.6023,0.9234l0.8086,0.5273   c-0.035,0.1549-0.0571,0.3145-0.0571,0.4799c0,0.2044,0.0378,0.3984,0.0911,0.5861l-0.6839,0.446l0.6022,0.9234l0.6376-0.4157   c0.266,0.2624,0.602,0.4501,0.9745,0.5487v0.8125h1.1024V26.478c0.3893-0.1018,0.7367-0.3032,1.0079-0.5831l0.687,0.448   l0.6022-0.9234l-0.7522-0.4906c0.0451-0.1742,0.0766-0.3536,0.0766-0.5416c0-0.2053-0.0373-0.4-0.0902-0.5883l0.7658-0.4994   L24.7763,22.3763z M22.534,25.6872c-0.7254,0-1.3073-0.5819-1.3073-1.2998c0-0.7254,0.5819-1.3073,1.3073-1.3073   c0.718,0,1.3074,0.5819,1.3074,1.3073C23.8414,25.1053,23.252,25.6872,22.534,25.6872z"
       id="path20" /><circle
       cx="22.5302"
       cy="24.3836"
       r="0.5512"
       id="circle22" /><path
       d="M16.8165,30.0053h-4.1643c0.2302,0.3904,0.4605,0.7808,0.6907,1.1712   c-0.3504,0.4104-0.7007,0.8409-1.0511,1.2613h-1.4415c-0.3904-0.4304-0.7708-0.8509-1.1713-1.2814   c0.2403-0.3904,0.4605-0.7708,0.6907-1.1512H6.2155C3.3324,30.0053,1,32.3377,1,35.2207v8.7992h21.0319v-8.7992   C22.0319,32.3377,19.6995,30.0053,16.8165,30.0053z M11.5009,41.6875v0.02c-0.7508-1.0311-1.4915-2.0521-2.2423-3.0732   c0.5206-2.0121,1.0311-4.0242,1.5416-6.0363h1.3814c0.5306,2.0221,1.0611,4.0342,1.5917,6.0564   C13.0125,39.6654,12.2617,40.6764,11.5009,41.6875z"
       id="path24" /><path
       d="M15.1147,29.0043h-0.0901v0.05C15.0547,29.0443,15.0847,29.0243,15.1147,29.0043z"
       id="path26" /><circle
       cx="11.5157"
       cy="22.998"
       r="6.0063"
       id="circle28" /></g></svg>