<svg xmlns="http://www.w3.org/2000/svg" xmlns:xlink="http://www.w3.org/1999/xlink" xml:space="preserve" version="1.1" style="shape-rendering:geometricPrecision;text-rendering:geometricPrecision;image-rendering:optimizeQuality;" viewBox="0 0 37722 47152.5" x="0px" y="0px" fill-rule="evenodd" clip-rule="evenodd"><defs><style type="text/css">
   
    .fil0 {fill:black}
   
  </style></defs><g><path class="fil0" d="M16465 15758l0 7494c-598,127 -1219,195 -1855,195 -636,0 -1257,-68 -1855,-195l0 -7494c-1621,-714 -2752,-2334 -2752,-4219 0,-1733 957,-3243 2372,-4029l0 3937c0,378 308,685 685,685l3101 0c377,0 684,-307 684,-685l0 -3937c1415,786 2373,2296 2373,4029 0,1885 -1132,3505 -2753,4219zm440 -12839c1585,309 3056,933 4348,1802l1410 -1409c361,-361 949,-361 1311,0l1934 1935c362,361 362,950 0,1311l-1409 1409c870,1292 1493,2764 1803,4348l1991 0c511,0 927,416 927,927l0 2736c0,511 -416,927 -927,927l-1991 0c-309,1585 -933,3057 -1803,4349l1409 1409c362,361 362,949 0,1311l-1934 1934c-362,362 -950,362 -1311,0l-1410 -1409c-1292,870 -2764,1493 -4348,1802l0 1992c0,511 -416,927 -927,927l-2736 0c-511,0 -927,-416 -927,-927l0 -1991c-1584,-309 -3056,-933 -4348,-1803l-1409 1409c-361,362 -950,362 -1311,0l-1935 -1934c-361,-362 -361,-950 0,-1311l1409 -1410c-869,-1292 -1493,-2764 -1802,-4348l-1992 0c-511,0 -927,-416 -927,-927l0 -2736c0,-511 416,-927 927,-927l1991 0c310,-1584 933,-3056 1803,-4348l-1409 -1409c-361,-361 -361,-950 0,-1311l1935 -1935c361,-361 950,-361 1311,0l1409 1409c1292,-869 2764,-1493 4348,-1802l0 -1992c0,-511 416,-927 927,-927l2736 0c511,0 927,416 927,927l0 1992zm10869 21161l1151 -288 0 0 1151 -289 995 2106c645,56 1266,237 1832,524l1958 -1264 826 852 825 853 -1327 1916c133,284 241,586 320,902 79,316 126,632 144,946l2073 1063 -326 1141 -325 1141 -2323 -191c-364,520 -826,972 -1368,1326l115 2327 -1151 288 -1151 289 -995 -2106c-645,-56 -1267,-237 -1832,-524l-1959 1264 -825 -852 -825 -853 1326 -1916c-132,-284 -240,-586 -319,-902 -80,-316 -126,-632 -144,-946l-2073 -1063 325 -1141 326 -1141 2323 191c363,-520 826,-972 1368,-1326l-115 -2327zm2270 4177c1301,-326 2619,465 2946,1765 326,1301 -465,2620 -1765,2946 -1301,326 -2620,-465 -2946,-1765 -326,-1301 464,-2620 1765,-2946zm-15434 -23130c5237,0 9483,4246 9483,9483 0,5237 -4246,9483 -9483,9483 -5237,0 -9483,-4246 -9483,-9483 0,-5237 4246,-9483 9483,-9483z"/></g><text x="0" y="37737" fill="#000000" font-size="5px" font-weight="bold" font-family="'Helvetica Neue', Helvetica, Arial-Unicode, Arial, Sans-serif">Created by popcornarts</text><text x="0" y="37742" fill="#000000" font-size="5px" font-weight="bold" font-family="'Helvetica Neue', Helvetica, Arial-Unicode, Arial, Sans-serif">from the Noun Project</text></svg>