<?xml version="1.0" encoding="UTF-8" standalone="no"?>
<svg
   xmlns:dc="http://purl.org/dc/elements/1.1/"
   xmlns:cc="http://creativecommons.org/ns#"
   xmlns:rdf="http://www.w3.org/1999/02/22-rdf-syntax-ns#"
   xmlns:svg="http://www.w3.org/2000/svg"
   xmlns="http://www.w3.org/2000/svg"
   xmlns:sodipodi="http://sodipodi.sourceforge.net/DTD/sodipodi-0.dtd"
   xmlns:inkscape="http://www.inkscape.org/namespaces/inkscape"
   version="1.1"
   x="0px"
   y="0px"
   viewBox="0 0 160 200"
   style="enable-background:new 0 0 160 160;"
   xml:space="preserve"
   id="svg24"
   sodipodi:docname="13_SVGF.svg"
   inkscape:version="0.92.4 (5da689c313, 2019-01-14)"><metadata
     id="metadata30"><rdf:RDF><cc:Work
         rdf:about=""><dc:format>image/svg+xml</dc:format><dc:type
           rdf:resource="http://purl.org/dc/dcmitype/StillImage" /></cc:Work></rdf:RDF></metadata><defs
     id="defs28" /><sodipodi:namedview
     pagecolor="#ffffff"
     bordercolor="#666666"
     borderopacity="1"
     objecttolerance="10"
     gridtolerance="10"
     guidetolerance="10"
     inkscape:pageopacity="0"
     inkscape:pageshadow="2"
     inkscape:window-width="640"
     inkscape:window-height="480"
     id="namedview26"
     showgrid="false"
     inkscape:zoom="1.18"
     inkscape:cx="80"
     inkscape:cy="100"
     inkscape:window-x="0"
     inkscape:window-y="0"
     inkscape:window-maximized="0"
     inkscape:current-layer="svg24" /><path
     d="M108.046,140.724v6.925H23.741V36.732h14.697v5.797c0,1.933,1.567,3.5,3.5,3.5h47.91c1.933,0,3.5-1.567,3.5-3.5v-5.797  h14.697v35.92c1.151-0.117,2.319-0.178,3.5-0.178s2.349,0.06,3.5,0.178v-39.42c0-1.933-1.567-3.5-3.5-3.5H93.348v-5.796  c0-1.933-1.567-3.5-3.5-3.5h-12.31v-3.439c0-6.421-5.225-11.645-11.646-11.645s-11.645,5.224-11.645,11.645v3.439H41.938  c-1.933,0-3.5,1.567-3.5,3.5v5.796H20.241c-1.933,0-3.5,1.567-3.5,3.5v117.917c0,1.933,1.567,3.5,3.5,3.5h91.304  c1.933,0,3.5-1.567,3.5-3.5v-10.425c-1.151,0.117-2.319,0.178-3.5,0.178S109.197,140.841,108.046,140.724z M61.249,16.996  c0-2.561,2.083-4.645,4.645-4.645s4.645,2.084,4.645,4.645v3.439h-9.29C61.249,20.435,61.249,16.996,61.249,16.996z M45.438,27.436  h40.91v11.593h-40.91V27.436z"
     id="path2" /><path
     d="M53.316,116.347H37.575c-1.381,0-2.5,1.119-2.5,2.5v15.74c0,1.381,1.119,2.5,2.5,2.5h15.741c1.381,0,2.5-1.119,2.5-2.5  v-15.74C55.816,117.466,54.697,116.347,53.316,116.347z M50.816,132.087H40.075v-10.74h10.741V132.087z"
     id="path4" /><path
     d="M55.816,57.661c0-1.381-1.119-2.5-2.5-2.5H37.575c-1.381,0-2.5,1.119-2.5,2.5v15.741c0,1.381,1.119,2.5,2.5,2.5h15.741  c1.381,0,2.5-1.119,2.5-2.5V57.661z M50.816,70.902H40.075V60.161h10.741V70.902z"
     id="path6" /><path
     d="M55.816,88.254c0-1.381-1.119-2.5-2.5-2.5H37.575c-1.381,0-2.5,1.119-2.5,2.5v15.74c0,1.381,1.119,2.5,2.5,2.5h15.741  c1.381,0,2.5-1.119,2.5-2.5V88.254z M50.816,101.494H40.075v-10.74h10.741V101.494z"
     id="path8" /><path
     d="M97.226,65.531c0-1.381-1.119-2.5-2.5-2.5H65.893c-1.381,0-2.5,1.119-2.5,2.5s1.119,2.5,2.5,2.5h28.833  C96.107,68.031,97.226,66.912,97.226,65.531z"
     id="path10" /><path
     d="M65.893,93.624c-1.381,0-2.5,1.119-2.5,2.5s1.119,2.5,2.5,2.5H78.3c0.417-1.721,0.962-3.391,1.629-5H65.893z"
     id="path12" /><path
     d="M63.393,126.717c0,1.381,1.119,2.5,2.5,2.5h19.936c-1.36-1.551-2.586-3.221-3.651-5H65.893  C64.512,124.217,63.393,125.336,63.393,126.717z"
     id="path14" /><path
     d="M111.546,74.975c-17.487,0-31.714,14.227-31.714,31.713c0,17.487,14.227,31.714,31.714,31.714  c17.486,0,31.713-14.227,31.713-31.714S129.032,74.975,111.546,74.975z M114.046,131.276v-4.413c0-1.381-1.119-2.5-2.5-2.5  s-2.5,1.119-2.5,2.5v4.413c-11.635-1.174-20.913-10.453-22.088-22.088h5.413c1.381,0,2.5-1.119,2.5-2.5s-1.119-2.5-2.5-2.5h-5.413  c1.174-11.635,10.453-20.91,22.088-22.085v4.411c0,1.381,1.119,2.5,2.5,2.5s2.5-1.119,2.5-2.5v-4.411  c11.635,1.174,20.913,10.45,22.087,22.085h-5.413c-1.381,0-2.5,1.119-2.5,2.5s1.119,2.5,2.5,2.5h5.413  C134.958,120.823,125.681,130.101,114.046,131.276z"
     id="path16" /><path
     d="M114.046,105.683V93.497c0-1.381-1.119-2.5-2.5-2.5s-2.5,1.119-2.5,2.5v13.19c0,0.646,0.249,1.265,0.696,1.73l7.762,8.092  c0.49,0.512,1.146,0.77,1.804,0.77c0.623,0,1.246-0.231,1.73-0.696c0.996-0.955,1.029-2.538,0.073-3.534L114.046,105.683z"
     id="path18" /></svg>