<?xml version="1.0" encoding="UTF-8" standalone="no"?>
<svg
   xmlns:dc="http://purl.org/dc/elements/1.1/"
   xmlns:cc="http://creativecommons.org/ns#"
   xmlns:rdf="http://www.w3.org/1999/02/22-rdf-syntax-ns#"
   xmlns:svg="http://www.w3.org/2000/svg"
   xmlns="http://www.w3.org/2000/svg"
   xmlns:sodipodi="http://sodipodi.sourceforge.net/DTD/sodipodi-0.dtd"
   xmlns:inkscape="http://www.inkscape.org/namespaces/inkscape"
   version="1.1"
   x="0px"
   y="0px"
   viewBox="0 0 100 125"
   style="enable-background:new 0 0 100 100;"
   xml:space="preserve"
   id="svg18"
   sodipodi:docname="01_SVGF.svg"
   inkscape:version="0.92.4 (5da689c313, 2019-01-14)"><metadata
     id="metadata24"><rdf:RDF><cc:Work
         rdf:about=""><dc:format>image/svg+xml</dc:format><dc:type
           rdf:resource="http://purl.org/dc/dcmitype/StillImage" /></cc:Work></rdf:RDF></metadata><defs
     id="defs22" /><sodipodi:namedview
     pagecolor="#ffffff"
     bordercolor="#666666"
     borderopacity="1"
     objecttolerance="10"
     gridtolerance="10"
     guidetolerance="10"
     inkscape:pageopacity="0"
     inkscape:pageshadow="2"
     inkscape:window-width="2400"
     inkscape:window-height="1261"
     id="namedview20"
     showgrid="false"
     inkscape:zoom="7.552"
     inkscape:cx="91.592648"
     inkscape:cy="77.201072"
     inkscape:window-x="-9"
     inkscape:window-y="-9"
     inkscape:window-maximized="1"
     inkscape:current-layer="svg18" /><style
     type="text/css"
     id="style2">
	.st0{fill:none;}
</style><rect
     class="st0"
     width="100"
     height="100"
     id="rect4" /><g
     id="g8"><path
       d="M87,48.8L59.2,23.6c-0.3-0.3-0.7-0.4-1-0.4c-0.2,0-0.4,0-0.6,0.1c-0.6,0.2-0.9,0.8-0.9,1.4l0,16h-11   c-0.9,0-1.6,0.7-1.6,1.6v0c0,0.9,0.7,1.6,1.6,1.6h12.5c0.9,0,1.6-0.7,1.6-1.6l0-14.1l24,21.7l-24,21.7l0-14.1   c0-0.9-0.7-1.6-1.6-1.6H36.8c-0.9,0-1.6,0.7-1.6,1.6l0,0c0,0.9,0.7,1.6,1.6,1.6h19.7l0,16c0,0.6,0.4,1.2,0.9,1.4   c0.6,0.2,1.2,0.1,1.7-0.3L87,51.2c0.3-0.3,0.5-0.7,0.5-1.2C87.5,49.6,87.3,49.1,87,48.8z"
       id="path6" /></g><path
     d="M23,56.2h-8.9c-0.9,0-1.6,0.7-1.6,1.6v0c0,0.9,0.7,1.6,1.6,1.6H23c0.9,0,1.6-0.7,1.6-1.6v0C24.5,56.9,23.8,56.2,23,56.2z"
     id="path10" /><path
     d="M37.3,48.1H23.1c-0.9,0-1.6,0.7-1.6,1.6v0c0,0.9,0.7,1.6,1.6,1.6h14.2c0.9,0,1.6-0.7,1.6-1.6v0  C38.8,48.8,38.1,48.1,37.3,48.1z"
     id="path12" /></svg>