<?xml version="1.0" encoding="UTF-8" standalone="no"?>
<svg
   xmlns:dc="http://purl.org/dc/elements/1.1/"
   xmlns:cc="http://creativecommons.org/ns#"
   xmlns:rdf="http://www.w3.org/1999/02/22-rdf-syntax-ns#"
   xmlns:svg="http://www.w3.org/2000/svg"
   xmlns="http://www.w3.org/2000/svg"
   xmlns:sodipodi="http://sodipodi.sourceforge.net/DTD/sodipodi-0.dtd"
   xmlns:inkscape="http://www.inkscape.org/namespaces/inkscape"
   version="1.1"
   x="0px"
   y="0px"
   viewBox="0 0 128 160"
   style="enable-background:new 0 0 128 128;"
   xml:space="preserve"
   id="svg10"
   sodipodi:docname="05_SVGF.svg"
   inkscape:version="0.92.4 (5da689c313, 2019-01-14)"><metadata
     id="metadata16"><rdf:RDF><cc:Work
         rdf:about=""><dc:format>image/svg+xml</dc:format><dc:type
           rdf:resource="http://purl.org/dc/dcmitype/StillImage" /></cc:Work></rdf:RDF></metadata><defs
     id="defs14" /><sodipodi:namedview
     pagecolor="#ffffff"
     bordercolor="#666666"
     borderopacity="1"
     objecttolerance="10"
     gridtolerance="10"
     guidetolerance="10"
     inkscape:pageopacity="0"
     inkscape:pageshadow="2"
     inkscape:window-width="1366"
     inkscape:window-height="705"
     id="namedview12"
     showgrid="false"
     inkscape:zoom="1.475"
     inkscape:cx="64"
     inkscape:cy="80"
     inkscape:window-x="-8"
     inkscape:window-y="-8"
     inkscape:window-maximized="1"
     inkscape:current-layer="svg10" /><g
     id="g4"><path
       d="M64,2C29.813,2,2,29.813,2,64s27.813,62,62,62s62-27.813,62-62S98.187,2,64,2z M93.26,64.017   c0,0.539-0.208,1.055-0.578,1.435l-8.329,8.55c-0.381,0.391-0.879,0.586-1.376,0.586c-0.503,0-1.005-0.199-1.387-0.598   c-0.76-0.792-0.755-2.072,0.011-2.859l4.979-5.111H26.82c-0.9,4.044-4.432,7.074-8.647,7.074c-4.894,0-8.875-4.08-8.875-9.095   c0-5.015,3.982-9.095,8.875-9.095c4.216,0,7.747,3.03,8.647,7.074h59.727l-4.979-5.111c-0.766-0.786-0.771-2.066-0.011-2.858   c0.76-0.792,1.997-0.796,2.763-0.011l8.272,8.491c0.406,0.37,0.668,0.906,0.668,1.511c0,0.003-0.001,0.005-0.001,0.008   S93.26,64.014,93.26,64.017z M109.827,73.095c-4.894,0-8.876-4.08-8.876-9.095c0-5.015,3.982-9.095,8.876-9.095   c4.894,0,8.875,4.08,8.875,9.095C118.703,69.015,114.721,73.095,109.827,73.095z"
       id="path2" /></g></svg>