<svg xmlns="http://www.w3.org/2000/svg" xmlns:xlink="http://www.w3.org/1999/xlink" version="1.1" x="0px" y="0px" viewBox="0 0 100 125" enable-background="new 0 0 100 100" xml:space="preserve"><path d="M20,33.7V21.3c0-7.1,5.8-12.9,12.9-12.9h2.7c7.1,0,12.9,5.8,12.9,12.9v12.4c0,2.1-0.9,4.1-2.5,5.5v10.4  c2.6,1.3,10.3,5.4,17.4,11.2c1.8,1.5,2.8,3.6,2.8,6v8.5c0,0.9-0.8,1.7-1.7,1.7c-0.9,0-1.7-0.8-1.7-1.7v-8.5c0-1.3-0.6-2.5-1.6-3.3  c-7.6-6.2-15.8-10.4-17.4-11.1c-0.8-0.4-1.3-1.2-1.3-2v-12c0-0.6,0.3-1.1,0.8-1.4c1.1-0.7,1.7-1.9,1.7-3.2V21.3  c0-5.2-4.3-9.5-9.5-9.5h-2.7c-5.2,0-9.5,4.3-9.5,9.5v12.4c0,1.3,0.7,2.5,1.7,3.2c0.5,0.3,0.8,0.8,0.8,1.4v12c0,0.9-0.5,1.7-1.3,2  c-1.6,0.8-9.8,4.9-17.4,11.1c-1,0.8-1.6,2-1.6,3.3v8.5c0,0.9-0.8,1.7-1.7,1.7s-1.7-0.8-1.7-1.7v-8.5c0-2.3,1-4.5,2.8-6  c7.1-5.9,14.8-9.9,17.4-11.2V39.2C20.9,37.9,20,35.9,20,33.7z M40.1,53.8c0,1.5-0.6,2.9-1.5,3.9l1.3,28.5c0,0.5-0.2,1-0.6,1.3  l-4,3.6c-0.3,0.3-0.7,0.4-1.1,0.4c-0.4,0-0.8-0.1-1.1-0.4l-4-3.6c-0.4-0.3-0.6-0.8-0.6-1.3l1.2-28.8c-0.8-1-1.3-2.3-1.3-3.6  c0-0.9,0.8-1.7,1.7-1.7c0.9,0,1.7,0.8,1.7,1.7c0,1.3,1.1,2.4,2.4,2.4c0.5,0,1-0.2,1.3-0.4c0.1-0.1,0.2-0.2,0.3-0.2  c0.5-0.4,0.8-1.1,0.8-1.8c0-0.9,0.8-1.7,1.7-1.7S40.1,52.9,40.1,53.8z M36.4,85.6l-1.2-26c-0.3,0.1-0.6,0.1-1,0.1  c-0.4,0-0.8,0-1.2-0.1l-1.1,26.1l2.2,2L36.4,85.6z M56.8,33.8V16.6c0-3.5,2.8-6.3,6.3-6.3h28.2c3.5,0,6.3,2.8,6.3,6.3v17.2  c0,3.5-2.8,6.3-6.3,6.3H76l-8.1,7.7c-0.3,0.3-0.7,0.5-1.2,0.5c-0.2,0-0.5,0-0.7-0.1c-0.6-0.3-1-0.9-1-1.6v-6.5h-1.9  C59.6,40.2,56.8,37.3,56.8,33.8z M60.2,33.8c0,1.6,1.3,2.9,2.9,2.9h3.6c0.9,0,1.7,0.8,1.7,1.7v4.2l5.7-5.5c0.3-0.3,0.7-0.5,1.2-0.5  h16c1.6,0,2.9-1.3,2.9-2.9V16.6c0-1.6-1.3-2.9-2.9-2.9H63.1c-1.6,0-2.9,1.3-2.9,2.9V33.8z M67.3,23.5h19.8c0.9,0,1.7-0.8,1.7-1.7  c0-0.9-0.8-1.7-1.7-1.7H67.3c-0.9,0-1.7,0.8-1.7,1.7C65.6,22.8,66.4,23.5,67.3,23.5z M67.3,30.6h19.8c0.9,0,1.7-0.8,1.7-1.7  c0-0.9-0.8-1.7-1.7-1.7H67.3c-0.9,0-1.7,0.8-1.7,1.7C65.6,29.8,66.4,30.6,67.3,30.6z"/><text x="0" y="115" fill="#000000" font-size="5px" font-weight="bold" font-family="'Helvetica Neue', Helvetica, Arial-Unicode, Arial, Sans-serif">Created by Gregor Cresnar</text><text x="0" y="120" fill="#000000" font-size="5px" font-weight="bold" font-family="'Helvetica Neue', Helvetica, Arial-Unicode, Arial, Sans-serif">from the Noun Project</text></svg>