<svg xmlns="http://www.w3.org/2000/svg" xmlns:xlink="http://www.w3.org/1999/xlink" version="1.1" x="0px" y="0px" viewBox="0 0 128 160" style="enable-background:new 0 0 128 128;" xml:space="preserve"><g><g><g><path d="M20.191,60.683C10.712,60.683,3,68.202,3,77.446c0,9.243,7.712,16.762,17.191,16.762     c9.479,0,17.19-7.52,17.19-16.762C37.381,68.202,29.669,60.683,20.191,60.683z M28.539,79.39l-11.711,7.989     c-0.406,0.276-0.878,0.417-1.353,0.417c-0.381,0-0.762-0.09-1.111-0.272c-0.784-0.409-1.276-1.216-1.276-2.096V69.463     c0-0.879,0.491-1.686,1.275-2.095c0.783-0.409,1.732-0.355,2.463,0.143l11.711,7.975c0.648,0.442,1.036,1.171,1.036,1.951     C29.574,78.218,29.186,78.948,28.539,79.39z"/><polygon points="17.862,80.925 22.971,77.44 17.862,73.962    "/></g><path d="M125,76.058c0-7.49-8.75-13.584-19.505-13.584s-19.506,6.093-19.506,13.584    c0,7.49,8.751,13.584,19.506,13.584c3.219,0,6.294-0.54,9.14-1.605c0.274-0.102,0.56-0.153,0.845-0.153    c0.414,0,0.827,0.107,1.194,0.316l4.766,2.719l-0.047-6.074c-0.005-0.592,0.214-1.164,0.613-1.605    C123.965,81.077,125,78.593,125,76.058z M96.229,79.633c-1.737,0-3.151-1.33-3.151-2.965c0-1.635,1.414-2.965,3.151-2.965    c1.738,0,3.152,1.33,3.152,2.965C99.38,78.302,97.966,79.633,96.229,79.633z M105.744,79.633c-1.737,0-3.151-1.33-3.151-2.965    c0-1.635,1.414-2.965,3.151-2.965c1.738,0,3.151,1.33,3.151,2.965C108.895,78.302,107.481,79.633,105.744,79.633z M115.258,79.633    c-1.737,0-3.151-1.33-3.151-2.965c0-1.635,1.414-2.965,3.151-2.965c1.738,0,3.151,1.33,3.151,2.965    C118.41,78.302,116.996,79.633,115.258,79.633z"/><g><path d="M60.453,110.76c0.363,0.254,0.871,0.255,1.236,0.002l16.462-11.936l-33.269,0.086l10.568,8.356     L60.453,110.76z"/><path d="M64.622,114.831c-1.076,0.747-2.323,1.118-3.563,1.118c-1.233,0-2.461-0.367-3.508-1.098l-5.062-3.535     c-0.041-0.029-0.081-0.059-0.121-0.09l-12.362-9.773V126h43.324v-24.734L64.622,114.831z"/></g><g><path d="M43.6,52.762h36.215V42.103c0-8.127-7.034-14.739-15.678-14.739h-4.903c-0.005,0-0.01,0-0.015,0     c-1.623,0-3.22,0.233-4.75,0.692c-1.477,0.443-4.333,1.574-6.861,4.158c-0.014,0.014-0.042,0.043-0.044,0.045     c-2.377,2.464-3.7,5.739-3.76,9.254L43.6,52.762z"/><path d="M61.677,2C55.9,2,51.2,6.558,51.2,12.159S55.9,22.318,61.677,22.318     c5.778,0,10.477-4.558,10.477-10.159S67.455,2,61.677,2z"/></g><g><g><path d="M61.187,91.657c-1.131,0-2.048-0.91-2.048-2.032V59.716c0-1.122,0.917-2.032,2.048-2.032      c1.131,0,2.048,0.91,2.048,2.032v29.909C63.234,90.747,62.318,91.657,61.187,91.657z"/></g><path d="M81.825,70.298c-0.263,0-0.53-0.051-0.788-0.157l-19.831-8.215l-18.832,8.2     c-1.033,0.452-2.243-0.016-2.698-1.044c-0.454-1.027,0.016-2.226,1.052-2.677l19.635-8.55c0.511-0.224,1.094-0.229,1.612-0.014     l20.64,8.55c1.044,0.433,1.537,1.623,1.101,2.658C83.388,69.828,82.627,70.298,81.825,70.298z"/></g></g></g><text x="0" y="143" fill="#000000" font-size="5px" font-weight="bold" font-family="'Helvetica Neue', Helvetica, Arial-Unicode, Arial, Sans-serif">Created by Shocho</text><text x="0" y="148" fill="#000000" font-size="5px" font-weight="bold" font-family="'Helvetica Neue', Helvetica, Arial-Unicode, Arial, Sans-serif">from the Noun Project</text></svg>