<svg xmlns="http://www.w3.org/2000/svg" xmlns:xlink="http://www.w3.org/1999/xlink" version="1.1" x="0px" y="0px" viewBox="0 0 100 125" enable-background="new 0 0 100 100" xml:space="preserve"><g><path d="M36.4,89.8H1.7V78.5c0-2.4,1-4.6,2.9-6.1C14.8,64,25.8,58.5,28,57.4c0.3-0.1,0.4-0.4,0.4-0.7l0-5.9c-1.5-2.6-2.3-5.4-2.7-8   c-0.9-0.1-2.1-1.3-3.3-5.8c-1.7-6.1,0.1-7,1.7-6.9c-1.1-3.2-1.2-6.4-0.4-9.3c0.8-3.5,2.7-6.2,4.8-8.4c1.3-1.4,2.8-2.6,4.4-3.6   C34.1,8,35.5,7.2,37,6.7l0,0c1.2-0.4,2.5-0.7,3.9-0.7c4.2-0.4,7.5,0.7,9.8,2.1c3.4,1.9,4.8,4.4,4.8,4.4s8.7,0.6,4.9,18.8   c1.2,0.4,2,2,0.6,6.8c-1.7,5.9-3.2,6.2-4.1,5.6c-0.4,2-1,4.3-2,6.4c0,2.9,0,5.7,0,6.8c0,0.3,0.2,0.5,0.4,0.7   c0.9,0.4,3.2,1.6,6.2,3.3c-3.3,4-5.3,9.2-5.3,14.8c0,5.4,1.8,10.4,4.9,14.3H46.9l-3.4-15.7C50.4,64.4,43,64,41.7,64h0h0   c-1.3,0-8.7,0.5-1.8,10.1L36.4,89.8z M96.7,78.2l-2.4,0c-0.4,2-1.1,3.9-2.3,5.6l1.7,1.7c0.6,0.6,0.6,1.6,0,2.2L92,89.5   c-0.6,0.6-1.6,0.6-2.2,0l-1.7-1.7c-1.7,1.2-3.7,2-5.7,2.4l0,2.3c0,0.9-0.7,1.6-1.6,1.6l-2.4,0c-0.9,0-1.6-0.7-1.6-1.6l0-2.3   c-2-0.4-3.9-1.2-5.7-2.3l-1.6,1.6c-0.6,0.6-1.6,0.6-2.2,0l-1.7-1.7c-0.6-0.6-0.6-1.6,0-2.2l1.6-1.6c-1.2-1.7-2-3.7-2.4-5.7l-2.3,0   c-0.9,0-1.6-0.7-1.6-1.6l0-2.4c0-0.9,0.7-1.6,1.6-1.6l2.3,0c0.4-2,1.2-3.9,2.4-5.7l-1.7-1.7c-0.6-0.6-0.6-1.6,0-2.2l1.7-1.7   c0.6-0.6,1.6-0.6,2.2,0l1.7,1.7c1.7-1.2,3.7-2,5.6-2.3l0-2.4c0-0.9,0.7-1.6,1.6-1.6l2.4,0c0.9,0,1.6,0.7,1.6,1.6l0,2.4   c2,0.4,3.9,1.2,5.6,2.3l1.7-1.7c0.6-0.6,1.6-0.6,2.2,0l1.7,1.7c0.6,0.6,0.6,1.6,0,2.2L92,67c1.2,1.7,2,3.6,2.3,5.6l2.4,0   c0.9,0,1.6,0.7,1.6,1.6l0,2.4C98.3,77.5,97.6,78.2,96.7,78.2z M85.3,69.7c-3.2-3.2-8.3-3.2-11.5,0c-3.2,3.2-3.2,8.3,0,11.5   c3.2,3.2,8.3,3.2,11.5,0S88.5,72.9,85.3,69.7z"/></g><text x="0" y="115" fill="#000000" font-size="5px" font-weight="bold" font-family="'Helvetica Neue', Helvetica, Arial-Unicode, Arial, Sans-serif">Created by Gregor Cresnar</text><text x="0" y="120" fill="#000000" font-size="5px" font-weight="bold" font-family="'Helvetica Neue', Helvetica, Arial-Unicode, Arial, Sans-serif">from the Noun Project</text></svg>