<?xml version="1.0" encoding="UTF-8" standalone="no"?>
<svg
   xmlns:dc="http://purl.org/dc/elements/1.1/"
   xmlns:cc="http://creativecommons.org/ns#"
   xmlns:rdf="http://www.w3.org/1999/02/22-rdf-syntax-ns#"
   xmlns:svg="http://www.w3.org/2000/svg"
   xmlns="http://www.w3.org/2000/svg"
   xmlns:sodipodi="http://sodipodi.sourceforge.net/DTD/sodipodi-0.dtd"
   xmlns:inkscape="http://www.inkscape.org/namespaces/inkscape"
   viewBox="0 0 64 80"
   x="0px"
   y="0px"
   version="1.1"
   id="svg32"
   sodipodi:docname="15_SVGF.svg"
   inkscape:version="0.92.4 (5da689c313, 2019-01-14)">
  <metadata
     id="metadata38">
    <rdf:RDF>
      <cc:Work
         rdf:about="">
        <dc:format>image/svg+xml</dc:format>
        <dc:type
           rdf:resource="http://purl.org/dc/dcmitype/StillImage" />
      </cc:Work>
    </rdf:RDF>
  </metadata>
  <defs
     id="defs36" />
  <sodipodi:namedview
     pagecolor="#ffffff"
     bordercolor="#666666"
     borderopacity="1"
     objecttolerance="10"
     gridtolerance="10"
     guidetolerance="10"
     inkscape:pageopacity="0"
     inkscape:pageshadow="2"
     inkscape:window-width="640"
     inkscape:window-height="480"
     id="namedview34"
     showgrid="false"
     inkscape:zoom="2.95"
     inkscape:cx="32"
     inkscape:cy="40"
     inkscape:window-x="0"
     inkscape:window-y="0"
     inkscape:window-maximized="0"
     inkscape:current-layer="svg32" />
  <title
     id="title2">time-clock-clockwise-passing-meeting</title>
  <g
     id="g26">
    <path
       d="M28,24A11,11,0,1,0,39,35,11.013,11.013,0,0,0,28,24Zm5.1,3.583a8.99,8.99,0,0,1,2.449,2.51L33.87,31.185a6.98,6.98,0,0,0-1.906-1.954ZM22.93,42.435a8.93,8.93,0,0,1-2.459-2.5l.686-.449a.992.992,0,0,1,.2-.252L27,34.532V29a1,1,0,0,1,2,0v6a1,1,0,0,1-.359.768l-5.3,4.417a7.1,7.1,0,0,0,.717.6Zm6.715,1.413A9.157,9.157,0,0,1,27.991,44a8.987,8.987,0,0,1-1.835-.19l.41-1.958a7.026,7.026,0,0,0,2.692.033l.419,1.956Zm3.276-1.31-1.094-1.674a6.96,6.96,0,0,0,1.949-1.909l1.651,1.129A8.953,8.953,0,0,1,32.921,42.538Zm1.931-6.093A6.966,6.966,0,0,0,35,35.009a7.134,7.134,0,0,0-.115-1.267l1.957-.414.021.135A8.533,8.533,0,0,1,37,35.009a8.961,8.961,0,0,1-.193,1.851Z"
       id="path4" />
    <path
       d="M40.1,43.853a17.746,17.746,0,0,1,2.873-8.02c.017-.276.03-.551.03-.833a15.024,15.024,0,1,0-2.9,8.853ZM28,48A13,13,0,1,1,41,35,13.015,13.015,0,0,1,28,48Z"
       id="path6" />
    <path
       d="M44.169,29.771a16.9,16.9,0,0,1,.748,3.588A17.6,17.6,0,0,1,46.366,32,17.65,17.65,0,0,1,44.169,29.771Z"
       id="path8" />
    <path
       d="M42,18.4a15.749,15.749,0,0,0,6.581,12.79,1,1,0,0,1,0,1.626A15.749,15.749,0,0,0,42,45.6V46H60v-.4a15.749,15.749,0,0,0-6.581-12.79,1,1,0,0,1,0-1.626A15.749,15.749,0,0,0,60,18.4V18H42ZM46,44H44V42h2Zm10-2h2v2H56Zm-7-9h2v2H49Zm1,11H48V42h2Zm0-6h2v2H50Zm4,4v2H52V42Zm1-18h2v2H55Zm-3-2h2v2H52Zm0,6H50V26h2Zm-4-5h2v2H48Zm0,5H46V26h2Zm-4-6h2v2H44Z"
       id="path10" />
    <rect
       x="42"
       y="14"
       width="18"
       height="2"
       id="rect12" />
    <path
       d="M40,47.035A17.087,17.087,0,0,1,35.979,50H13v2H60V50H40Z"
       id="path14" />
    <rect
       x="2"
       y="38"
       width="2"
       height="2"
       id="rect16" />
    <rect
       x="5"
       y="44"
       width="2"
       height="2"
       id="rect18" />
    <rect
       x="9"
       y="50"
       width="2"
       height="2"
       id="rect20" />
    <rect
       x="9"
       y="44"
       width="7"
       height="2"
       id="rect22" />
    <rect
       x="6"
       y="38"
       width="6"
       height="2"
       id="rect24" />
  </g>
</svg>
