<svg xmlns="http://www.w3.org/2000/svg" xmlns:xlink="http://www.w3.org/1999/xlink" version="1.1" x="0px" y="0px" viewBox="0 0 64 80" style="enable-background:new 0 0 64 64;" xml:space="preserve"><path d="M39.778,19.979l-2.419,2.419C36.621,21.985,35.83,21.66,35,21.425V18h-6v3.425c-0.83,0.235-1.621,0.56-2.359,0.973  l-2.419-2.419l-4.243,4.243l2.419,2.419C21.985,27.379,21.66,28.17,21.425,29H18v6h3.425c0.235,0.83,0.56,1.621,0.973,2.359  l-2.419,2.419l4.243,4.243l2.419-2.419c0.738,0.413,1.529,0.738,2.359,0.973V46h6v-3.425c0.83-0.235,1.621-0.56,2.359-0.973  l2.419,2.419l4.243-4.243l-2.419-2.419c0.413-0.738,0.738-1.529,0.973-2.359H46v-6h-3.425c-0.235-0.83-0.56-1.621-0.973-2.359  l2.419-2.419L39.778,19.979z M32,39c-3.866,0-7-3.134-7-7c0-3.866,3.134-7,7-7s7,3.134,7,7C39,35.866,35.866,39,32,39z"/><circle cx="7" cy="57" r="5"/><path d="M24,2h-9c-4.963,0-9,4.037-9,9v39h2V11c0-3.859,3.141-7,7-7h9c3.859,0,7,3.141,7,7h2C33,6.037,28.963,2,24,2z"/><rect x="31" y="13" width="2" height="2"/><rect x="31" y="49" width="2" height="2"/><path d="M53,8h3v45c0,3.859-3.141,7-7,7h-9c-3.859,0-7-3.141-7-7h-2c0,4.963,4.037,9,9,9h9c4.963,0,9-4.037,9-9V8h3l-4-6L53,8z"/><text x="0" y="79" fill="#000000" font-size="5px" font-weight="bold" font-family="'Helvetica Neue', Helvetica, Arial-Unicode, Arial, Sans-serif">Created by Nithinan Tatah</text><text x="0" y="84" fill="#000000" font-size="5px" font-weight="bold" font-family="'Helvetica Neue', Helvetica, Arial-Unicode, Arial, Sans-serif">from the Noun Project</text></svg>