<svg xmlns="http://www.w3.org/2000/svg" xmlns:xlink="http://www.w3.org/1999/xlink" version="1.1" x="0px" y="0px" viewBox="0 0 100 125" enable-background="new 0 0 100 100" xml:space="preserve"><path d="M42.918,19.138c0.098,0,0.185,0.04,0.248,0.104l7.031,7.031l7.03-7.031c0.062-0.063,0.15-0.104,0.248-0.104h8.979  L78.417,7.265H22.02l11.873,11.873H42.918z"/><path d="M20.431,32.853c0.062,0.062,0.101,0.148,0.102,0.244c0,0.001,0.001,0.002,0.001,0.004v9.022l6.976,6.931l5.89-5.936V33.1  c0-0.193,0.156-0.35,0.35-0.35h10.016l5.939-5.983l-6.93-6.93h-9.025c-0.098,0-0.185-0.04-0.248-0.104L21.031,7.265H7.913v13.117  L20.431,32.853L20.431,32.853z"/><path d="M19.834,56.781c0,0,0,0,0-0.002s0.001-0.002,0.001-0.006c0.002-0.094,0.04-0.178,0.102-0.24  c0.001,0,0.001-0.002,0.001-0.002l7.075-6.983l-7.076-7.03v-0.001c-0.062-0.062-0.101-0.147-0.102-0.242  c0-0.002-0.001-0.003-0.001-0.005v-9.024L7.913,21.371v56.356l11.921-11.922V56.781z"/><path d="M33.501,79.268c0.062-0.062,0.148-0.1,0.244-0.102c0.001,0,0.002,0,0.004,0h9.024l6.93-6.885l-5.938-5.982H33.748  c-0.193,0-0.35-0.156-0.35-0.35v-9.971l-5.891-5.935l-6.975,6.884v9.021c0,0.098-0.04,0.186-0.104,0.248L7.913,78.715v13.07H21.03  L33.501,79.268L33.501,79.268z"/><path d="M79.962,66.195c-0.062-0.064-0.1-0.148-0.101-0.244c0-0.002,0-0.002,0-0.004v-9.02l-6.931-6.885l-5.983,5.938v9.969  c0,0.193-0.156,0.35-0.35,0.35h-9.923l-5.982,5.984l6.928,6.883h8.976c0.001,0,0.002,0,0.003,0c0.096,0,0.182,0.039,0.244,0.1  c0,0.002,0.001,0,0.002,0.002l12.566,12.518h13.022v-13.07L79.963,66.197C79.962,66.195,79.963,66.195,79.962,66.195z"/><path d="M57.476,79.865c-0.096,0-0.182-0.039-0.245-0.102c0,0-0.001,0-0.002,0l-7.031-6.986l-7.032,6.986c-0.001,0-0.002,0-0.002,0  c-0.063,0.062-0.149,0.102-0.245,0.102h-9.024l-11.875,11.92h56.4l-11.967-11.92H57.476z"/><path d="M66.846,19.734c-0.063,0.063-0.15,0.104-0.248,0.104H57.62l-6.929,6.93l5.983,5.983h9.923c0.193,0,0.35,0.156,0.35,0.35  v10.017l5.983,5.939l6.931-6.931V33.1c0-0.098,0.04-0.186,0.104-0.248l12.469-12.469V7.265H79.409L66.846,19.734z"/><path d="M80.561,42.27c0,0.098-0.04,0.186-0.104,0.248l-7.03,7.03l7.031,6.985l0,0c0.062,0.062,0.101,0.148,0.102,0.242  c0,0.002,0.001,0.004,0.001,0.006v9.023l11.873,11.918V21.372L80.561,33.245V42.27z"/><text x="0" y="115" fill="#000000" font-size="5px" font-weight="bold" font-family="'Helvetica Neue', Helvetica, Arial-Unicode, Arial, Sans-serif">Created by Lluisa Iborra</text><text x="0" y="120" fill="#000000" font-size="5px" font-weight="bold" font-family="'Helvetica Neue', Helvetica, Arial-Unicode, Arial, Sans-serif">from the Noun Project</text></svg>