<?xml version="1.0" encoding="UTF-8" standalone="no"?>
<svg
   xmlns:dc="http://purl.org/dc/elements/1.1/"
   xmlns:cc="http://creativecommons.org/ns#"
   xmlns:rdf="http://www.w3.org/1999/02/22-rdf-syntax-ns#"
   xmlns:svg="http://www.w3.org/2000/svg"
   xmlns="http://www.w3.org/2000/svg"
   xmlns:sodipodi="http://sodipodi.sourceforge.net/DTD/sodipodi-0.dtd"
   xmlns:inkscape="http://www.inkscape.org/namespaces/inkscape"
   viewBox="0 0 64 80"
   x="0px"
   y="0px"
   version="1.1"
   id="svg34"
   sodipodi:docname="04_SVGF.svg"
   inkscape:version="0.92.4 (5da689c313, 2019-01-14)">
  <metadata
     id="metadata40">
    <rdf:RDF>
      <cc:Work
         rdf:about="">
        <dc:format>image/svg+xml</dc:format>
        <dc:type
           rdf:resource="http://purl.org/dc/dcmitype/StillImage" />
      </cc:Work>
    </rdf:RDF>
  </metadata>
  <defs
     id="defs38" />
  <sodipodi:namedview
     pagecolor="#ffffff"
     bordercolor="#666666"
     borderopacity="1"
     objecttolerance="10"
     gridtolerance="10"
     guidetolerance="10"
     inkscape:pageopacity="0"
     inkscape:pageshadow="2"
     inkscape:window-width="640"
     inkscape:window-height="480"
     id="namedview36"
     showgrid="false"
     inkscape:zoom="2.95"
     inkscape:cx="32"
     inkscape:cy="40"
     inkscape:window-x="0"
     inkscape:window-y="0"
     inkscape:window-maximized="0"
     inkscape:current-layer="svg34" />
  <g
     id="g28"
     transform="translate(0,3.7288136)">
    <polygon
       points="8.707,12.293 7.293,13.707 10,16.414 14.707,11.707 13.293,10.293 10,13.586 "
       id="polygon2" />
    <rect
       x="18"
       y="10"
       width="15"
       height="2"
       id="rect4" />
    <rect
       x="18"
       y="14"
       width="15"
       height="2"
       id="rect6" />
    <rect
       x="18"
       y="34"
       width="18"
       height="2"
       id="rect8" />
    <rect
       x="18"
       y="38"
       width="18"
       height="2"
       id="rect10" />
    <polygon
       points="11,35.586 8.707,33.293 7.293,34.707 9.586,37 7.293,39.293 8.707,40.707 11,38.414 13.293,40.707 14.707,39.293 12.414,37 14.707,34.707 13.293,33.293 "
       id="polygon12" />
    <rect
       x="18"
       y="46"
       width="17"
       height="2"
       id="rect14" />
    <rect
       x="18"
       y="50"
       width="17"
       height="2"
       id="rect16" />
    <polygon
       points="11,47.586 8.707,45.293 7.293,46.707 9.586,49 7.293,51.293 8.707,52.707 11,50.414 13.293,52.707 14.707,51.293 12.414,49 14.707,46.707 13.293,45.293 "
       id="polygon18" />
    <polygon
       points="8.707,24.293 7.293,25.707 10,28.414 14.707,23.707 13.293,22.293 10,25.586 "
       id="polygon20" />
    <rect
       x="18"
       y="22"
       width="22"
       height="2"
       id="rect22" />
    <rect
       x="18"
       y="26"
       width="22"
       height="2"
       id="rect24" />
    <path
       d="M 53,36 H 48 V 34.7 A 7,7 0 1 0 50,21 H 48 V 12.586 L 37.414,2 H 2 v 58 h 36 v 2 H 62 V 45 A 9.01,9.01 0 0 0 53,36 Z M 50,40.764 48.618,38 h 2.764 z M 51.935,53.651 50,55.586 48.065,53.651 50,41.077 Z M 50,33 a 5.006,5.006 0 0 1 -5,-5 v -1 h 3 A 9.048,9.048 0 0 1 54.617,29.911 5.006,5.006 0 0 1 50,33 Z m 4.948,-5.516 A 11.051,11.051 0 0 0 48,25 h -3 v -2 h 5 a 4.989,4.989 0 0 1 4.948,4.484 z M 38,5.414 44.586,12 H 38 Z M 4,58 V 4 h 32 v 10 h 10 v 7 h -3 v 7 a 6.992,6.992 0 0 0 3,5.736 v 2.323 A 9.01,9.01 0 0 0 38,45 v 13 z m 56,2 H 40 V 45 a 7.006,7.006 0 0 1 6.4,-6.969 L 47.966,41.163 45.935,54.349 50,58.414 54.065,54.349 52.037,41.163 53.6,38.031 A 7.006,7.006 0 0 1 60,45 Z"
       id="path26"
       inkscape:connector-curvature="0" />
  </g>
</svg>
