<?xml version="1.0" encoding="UTF-8" standalone="no"?>
<svg
   xmlns:dc="http://purl.org/dc/elements/1.1/"
   xmlns:cc="http://creativecommons.org/ns#"
   xmlns:rdf="http://www.w3.org/1999/02/22-rdf-syntax-ns#"
   xmlns:svg="http://www.w3.org/2000/svg"
   xmlns="http://www.w3.org/2000/svg"
   xmlns:sodipodi="http://sodipodi.sourceforge.net/DTD/sodipodi-0.dtd"
   xmlns:inkscape="http://www.inkscape.org/namespaces/inkscape"
   version="1.1"
   x="0px"
   y="0px"
   viewBox="0 0 100 100"
   enable-background="new 0 0 100 100"
   xml:space="preserve"
   id="svg8"
   sodipodi:docname="09_SVGF.svg"
   width="100"
   height="100"
   inkscape:export-filename="C:\Users\S.Tayde\Google Drive\Alpha ERP\Website\Images\Icons\PNG exports\09.png"
   inkscape:export-xdpi="1000"
   inkscape:export-ydpi="1000"
   inkscape:version="0.92.4 (5da689c313, 2019-01-14)"><metadata
     id="metadata14"><rdf:RDF><cc:Work
         rdf:about=""><dc:format>image/svg+xml</dc:format><dc:type
           rdf:resource="http://purl.org/dc/dcmitype/StillImage" /><dc:title></dc:title></cc:Work></rdf:RDF></metadata><defs
     id="defs12" /><sodipodi:namedview
     pagecolor="#3e4095"
     bordercolor="#666666"
     borderopacity="1"
     objecttolerance="10"
     gridtolerance="10"
     guidetolerance="10"
     inkscape:pageopacity="1"
     inkscape:pageshadow="2"
     inkscape:window-width="2400"
     inkscape:window-height="1261"
     id="namedview10"
     showgrid="false"
     inkscape:zoom="5.3400704"
     inkscape:cx="116.30011"
     inkscape:cy="54.504087"
     inkscape:window-x="-9"
     inkscape:window-y="-9"
     inkscape:window-maximized="1"
     inkscape:current-layer="svg8" /><path
     d="m 88.86785,60.223012 c -1.61369,-0.08965 -5.020368,1.703339 -5.916862,2.151586 -3.317028,1.61369 -7.799499,4.213523 -10.847579,6.275459 -0.179299,0.179299 -0.448247,0.358598 -0.717195,0.448247 -1.344742,0.896494 -2.779132,1.434391 -4.303172,1.792989 -8.695994,1.882637 -21.336561,2.061936 -21.336561,2.061936 h -0.717196 c -0.537896,0 -1.075793,-0.358598 -1.165442,-0.896494 -0.08965,-0.627546 0.358598,-1.165442 0.986144,-1.165442 l 18.826377,-1.792989 c 2.061936,-0.268948 3.765275,-2.151586 3.496327,-4.303172 -0.179299,-2.151586 -2.241235,-3.765275 -4.303172,-3.585976 L 46.105078,61.029857 c -1.165442,0 -2.95843,-0.268948 -4.034223,-0.627546 -10.75793,-3.13773 -16.85409,-0.179299 -20.081469,1.165442 -0.717196,-1.165442 -2.061937,-1.972287 -3.585977,-1.882637 l -7.261603,0.448247 c -2.420534,0.179298 -4.2135223,2.151586 -4.0342235,4.48247 l 1.1654424,16.047246 c 0.1792989,2.330885 2.2412351,4.034224 4.6617701,3.854925 l 7.261602,-0.448247 c 1.52404,-0.08965 2.779132,-1.075793 3.317029,-2.330885 l 31.735893,1.344741 c 3.496327,0.358598 6.813355,-0.08965 9.951085,-1.703339 l 0.896494,-0.448247 23.936394,-13.985309 c 1.165443,-0.717195 1.972287,-1.882638 2.061937,-3.227379 0,-1.52404 -0.896494,-3.317028 -3.227379,-3.496327 z M 15.624277,80.752728 c -1.344741,0 -2.420534,-1.075793 -2.420534,-2.330885 0,-1.344741 1.075793,-2.330884 2.420534,-2.330884 1.344741,0 2.420534,1.075793 2.420534,2.330884 0,1.344742 -1.075793,2.330885 -2.420534,2.330885 z M 71.117265,65.691626 c 0,-0.448247 0,-0.896494 0,-1.344741 -0.08965,-0.537896 -0.179298,-1.075793 -0.358597,-1.613689 0,0 0,-0.08965 0,-0.08965 2.510183,-1.344741 7.440901,-3.765275 10.220033,-4.841068 1.344741,-0.537897 2.689483,-0.537897 3.944574,0.358597 -0.986143,0.358598 -1.882637,0.806845 -2.689482,1.165443 -2.868781,1.434391 -7.799499,4.123873 -10.309683,5.827212 -0.358597,0.268948 -0.627546,0.448247 -0.806845,0.537896 z m 7.171954,-9.502838 c -1.972287,0.896495 -5.737563,2.151586 -7.530551,3.13773 l -1.165443,0.717195 c -0.08965,0.08965 -0.179298,0.179299 -0.358597,0.179299 -0.537897,-0.627546 -1.165443,-1.165442 -1.882638,-1.613689 1.613689,-0.896495 5.378965,-2.061937 6.992654,-2.779132 1.434391,-0.448247 2.779132,-0.448247 3.944575,0.358597 z M 62.152324,38.886451 c 0.537896,0.717195 0.448247,1.792988 -0.179299,2.420534 -0.717195,0.717196 -1.792988,0.717196 -2.510184,0.08965 v 0 l -6.275459,-5.289316 c -0.08965,-0.08965 -0.268948,-0.179299 -0.358597,-0.268948 -0.537897,-0.537897 -0.806845,-1.165442 -0.717196,-1.882638 0,0 0,0 0,-0.08965 0,0 0,0 0,0 v 0 0 c 0,-0.08965 0,-0.179299 0,-0.179299 l 0.717196,-11.206177 c 0,0 0,-0.08965 0,-0.08965 v 0 0 c 0.08965,-0.896495 0.896494,-1.61369 1.792988,-1.61369 0.986144,0 1.792988,0.717195 1.792988,1.703339 v 0 l 0.627546,10.130384 c 0,0.268948 0.179299,0.627546 0.358598,0.806845 l 4.57212,5.378965 c 0.08965,0 0.08965,0 0.179299,0.08965 z M 54.890721,12.170925 c -11.833723,0 -21.42621,9.592488 -21.42621,21.426211 0,11.833722 9.592487,21.336561 21.336561,21.336561 11.744073,0 21.336561,-9.592488 21.336561,-21.336561 0,-11.744074 -9.502838,-21.426211 -21.246912,-21.426211 z m 0,37.832054 c -9.054591,0 -16.495492,-7.351252 -16.495492,-16.495493 0,-9.054591 7.351252,-16.495492 16.495492,-16.495492 9.144241,0 16.495493,7.351252 16.495493,16.495492 -0.08965,9.144241 -7.440902,16.495493 -16.495493,16.495493 z"
     id="path2"
     inkscape:connector-curvature="0"
     style="stroke-width:0.89649415;fill:#e6e6e6" /><text
     xml:space="preserve"
     style="font-style:normal;font-weight:normal;font-size:40px;line-height:1.25;font-family:sans-serif;letter-spacing:0px;word-spacing:0px;fill:#000000;fill-opacity:1;stroke:none"
     x="27.542374"
     y="96.954453"
     id="text836"><tspan
       sodipodi:role="line"
       id="tspan834"
       x="27.542374"
       y="133.44766"></tspan></text>
</svg>